<?xml version="1.0" encoding="utf-8"?><svg width="450" height="450" xmlns="http://www.w3.org/2000/svg" xmlns:xlink="http://www.w3.org/1999/xlink"><image xlink:href="logo-dots.png" x="1" y="1" width="449" height="449" /><circle cx="25" cy="25" r="25" fill="#88ffff" fill-opacity="0.4" /><circle cx="55" cy="5" r="5" fill="#59ffff" fill-opacity="0.1" /><circle cx="95" cy="5" r="5" fill="#77ffff" fill-opacity="0.2" /><circle cx="65" cy="15" r="5" fill="#86ffff" fill-opacity="0" /><circle cx="75" cy="15" r="5" fill="#22ffff" fill-opacity="0.1" /><circle cx="85" cy="15" r="5" fill="#67ffff" fill-opacity="0.4" /><circle cx="65" cy="35" r="5" fill="#ecffff" fill-opacity="0.1" /><circle cx="75" cy="35" r="5" fill="#94ffff" fill-opacity="0" /><circle cx="85" cy="35" r="5" fill="#7dffff" fill-opacity="0.4" /><circle cx="65" cy="45" r="5" fill="#b4ffff" fill-opacity="0.3" /><circle cx="75" cy="45" r="5" fill="#25ffff" fill-opacity="0.2" /><circle cx="85" cy="45" r="5" fill="#50ffff" fill-opacity="0.5" /><circle cx="105" cy="5" r="5" fill="#21ffff" fill-opacity="0" /><circle cx="145" cy="5" r="5" fill="#9dffff" fill-opacity="0.4" /><circle cx="115" cy="15" r="5" fill="#55ffff" fill-opacity="0.2" /><circle cx="125" cy="15" r="5" fill="#76ffff" fill-opacity="0.2" /><circle cx="135" cy="15" r="5" fill="#8effff" fill-opacity="0.4" /><circle cx="115" cy="35" r="5" fill="#f1ffff" fill-opacity="0.3" /><circle cx="125" cy="35" r="5" fill="#5effff" fill-opacity="0" /><circle cx="135" cy="35" r="5" fill="#9effff" fill-opacity="0" /><circle cx="115" cy="45" r="5" fill="#57ffff" fill-opacity="0.5" /><circle cx="125" cy="45" r="5" fill="#edffff" fill-opacity="0.5" /><circle cx="135" cy="45" r="5" fill="#e8ffff" fill-opacity="0" /><circle cx="155" cy="5" r="5" fill="#8dffff" fill-opacity="0.2" /><circle cx="195" cy="5" r="5" fill="#41ffff" fill-opacity="0.4" /><circle cx="165" cy="15" r="5" fill="#eeffff" fill-opacity="0.3" /><circle cx="175" cy="15" r="5" fill="#acffff" fill-opacity="0.2" /><circle cx="185" cy="15" r="5" fill="#c2ffff" fill-opacity="0.1" /><circle cx="165" cy="35" r="5" fill="#4affff" fill-opacity="0" /><circle cx="175" cy="35" r="5" fill="#88ffff" fill-opacity="0.4" /><circle cx="185" cy="35" r="5" fill="#e0ffff" fill-opacity="0.5" /><circle cx="165" cy="45" r="5" fill="#b5ffff" fill-opacity="0" /><circle cx="175" cy="45" r="5" fill="#02ffff" fill-opacity="0" /><circle cx="185" cy="45" r="5" fill="#fcffff" fill-opacity="0.4" /><circle cx="225" cy="25" r="25" fill="#0effff" fill-opacity="0.3" /><circle cx="5" cy="55" r="5" fill="#80ffff" fill-opacity="0.1" /><circle cx="45" cy="55" r="5" fill="#69ffff" fill-opacity="0.4" /><circle cx="15" cy="65" r="5" fill="#4cffff" fill-opacity="0.2" /><circle cx="25" cy="65" r="5" fill="#9effff" fill-opacity="0.1" /><circle cx="35" cy="65" r="5" fill="#30ffff" fill-opacity="0.1" /><circle cx="15" cy="85" r="5" fill="#64ffff" fill-opacity="0.3" /><circle cx="25" cy="85" r="5" fill="#30ffff" fill-opacity="0.4" /><circle cx="35" cy="85" r="5" fill="#37ffff" fill-opacity="0.2" /><circle cx="15" cy="95" r="5" fill="#faffff" fill-opacity="0.2" /><circle cx="25" cy="95" r="5" fill="#01ffff" fill-opacity="0.4" /><circle cx="35" cy="95" r="5" fill="#32ffff" fill-opacity="0" /><circle cx="75" cy="75" r="25" fill="#ecffff" fill-opacity="0" /><circle cx="125" cy="75" r="25" fill="#d0ffff" fill-opacity="0.5" /><circle cx="175" cy="75" r="25" fill="#efffff" fill-opacity="0.2" /><circle cx="205" cy="55" r="5" fill="#46ffff" fill-opacity="0.1" /><circle cx="245" cy="55" r="5" fill="#61ffff" fill-opacity="0.4" /><circle cx="215" cy="65" r="5" fill="#4affff" fill-opacity="0.2" /><circle cx="225" cy="65" r="5" fill="#1affff" fill-opacity="0.3" /><circle cx="235" cy="65" r="5" fill="#84ffff" fill-opacity="0" /><circle cx="215" cy="85" r="5" fill="#46ffff" fill-opacity="0.2" /><circle cx="225" cy="85" r="5" fill="#3cffff" fill-opacity="0.5" /><circle cx="235" cy="85" r="5" fill="#65ffff" fill-opacity="0.1" /><circle cx="215" cy="95" r="5" fill="#83ffff" fill-opacity="0" /><circle cx="225" cy="95" r="5" fill="#e5ffff" fill-opacity="0.4" /><circle cx="235" cy="95" r="5" fill="#72ffff" fill-opacity="0.4" /><circle cx="5" cy="105" r="5" fill="#6affff" fill-opacity="0.2" /><circle cx="45" cy="105" r="5" fill="#3affff" fill-opacity="0.2" /><circle cx="15" cy="115" r="5" fill="#35ffff" fill-opacity="0.5" /><circle cx="25" cy="115" r="5" fill="#62ffff" fill-opacity="0" /><circle cx="35" cy="115" r="5" fill="#42ffff" fill-opacity="0.3" /><circle cx="15" cy="135" r="5" fill="#3fffff" fill-opacity="0.2" /><circle cx="25" cy="135" r="5" fill="#7cffff" fill-opacity="0.2" /><circle cx="35" cy="135" r="5" fill="#bcffff" fill-opacity="0" /><circle cx="15" cy="145" r="5" fill="#deffff" fill-opacity="0.1" /><circle cx="25" cy="145" r="5" fill="#86ffff" fill-opacity="0.5" /><circle cx="35" cy="145" r="5" fill="#6affff" fill-opacity="0.4" /><circle cx="55" cy="105" r="5" fill="#a1ffff" fill-opacity="0" /><circle cx="95" cy="105" r="5" fill="#73ffff" fill-opacity="0.3" /><circle cx="65" cy="115" r="5" fill="#aeffff" fill-opacity="0" /><circle cx="75" cy="115" r="5" fill="#deffff" fill-opacity="0.5" /><circle cx="85" cy="115" r="5" fill="#7bffff" fill-opacity="0.3" /><circle cx="65" cy="135" r="5" fill="#dfffff" fill-opacity="0.2" /><circle cx="75" cy="135" r="5" fill="#1bffff" fill-opacity="0.1" /><circle cx="85" cy="135" r="5" fill="#16ffff" fill-opacity="0" /><circle cx="65" cy="145" r="5" fill="#bbffff" fill-opacity="0.1" /><circle cx="75" cy="145" r="5" fill="#f5ffff" fill-opacity="0.4" /><circle cx="85" cy="145" r="5" fill="#85ffff" fill-opacity="0.3" /><circle cx="105" cy="105" r="5" fill="#a6ffff" fill-opacity="0.5" /><circle cx="145" cy="105" r="5" fill="#1bffff" fill-opacity="0" /><circle cx="115" cy="115" r="5" fill="#84ffff" fill-opacity="0.1" /><circle cx="125" cy="115" r="5" fill="#e4ffff" fill-opacity="0" /><circle cx="135" cy="115" r="5" fill="#4affff" fill-opacity="0" /><circle cx="115" cy="135" r="5" fill="#48ffff" fill-opacity="0.2" /><circle cx="125" cy="135" r="5" fill="#a3ffff" fill-opacity="0.1" /><circle cx="135" cy="135" r="5" fill="#77ffff" fill-opacity="0.3" /><circle cx="115" cy="145" r="5" fill="#23ffff" fill-opacity="0.3" /><circle cx="125" cy="145" r="5" fill="#65ffff" fill-opacity="0" /><circle cx="135" cy="145" r="5" fill="#d1ffff" fill-opacity="0.3" /><circle cx="155" cy="105" r="5" fill="#80ffff" fill-opacity="0.1" /><circle cx="195" cy="105" r="5" fill="#53ffff" fill-opacity="0" /><circle cx="165" cy="115" r="5" fill="#4fffff" fill-opacity="0" /><circle cx="175" cy="115" r="5" fill="#f5ffff" fill-opacity="0.1" /><circle cx="185" cy="115" r="5" fill="#baffff" fill-opacity="0.2" /><circle cx="165" cy="135" r="5" fill="#72ffff" fill-opacity="0.4" /><circle cx="175" cy="135" r="5" fill="#d0ffff" fill-opacity="0" /><circle cx="185" cy="135" r="5" fill="#a1ffff" fill-opacity="0.4" /><circle cx="165" cy="145" r="5" fill="#b2ffff" fill-opacity="0.1" /><circle cx="175" cy="145" r="5" fill="#7affff" fill-opacity="0.4" /><circle cx="185" cy="145" r="5" fill="#83ffff" fill-opacity="0.1" /><circle cx="205" cy="105" r="5" fill="#d5ffff" fill-opacity="0.4" /><circle cx="245" cy="105" r="5" fill="#f8ffff" fill-opacity="0.1" /><circle cx="215" cy="115" r="5" fill="#b1ffff" fill-opacity="0.5" /><circle cx="225" cy="115" r="5" fill="#22ffff" fill-opacity="0.3" /><circle cx="235" cy="115" r="5" fill="#27ffff" fill-opacity="0.2" /><circle cx="215" cy="135" r="5" fill="#23ffff" fill-opacity="0" /><circle cx="225" cy="135" r="5" fill="#65ffff" fill-opacity="0.1" /><circle cx="235" cy="135" r="5" fill="#02ffff" fill-opacity="0.4" /><circle cx="215" cy="145" r="5" fill="#58ffff" fill-opacity="0.4" /><circle cx="225" cy="145" r="5" fill="#59ffff" fill-opacity="0.2" /><circle cx="235" cy="145" r="5" fill="#93ffff" fill-opacity="0.5" /><circle cx="5" cy="155" r="5" fill="#4fffff" fill-opacity="0.4" /><circle cx="45" cy="155" r="5" fill="#5cffff" fill-opacity="0.4" /><circle cx="15" cy="165" r="5" fill="#84ffff" fill-opacity="0.2" /><circle cx="25" cy="165" r="5" fill="#8dffff" fill-opacity="0.1" /><circle cx="35" cy="165" r="5" fill="#deffff" fill-opacity="0" /><circle cx="15" cy="185" r="5" fill="#f1ffff" fill-opacity="0.1" /><circle cx="25" cy="185" r="5" fill="#71ffff" fill-opacity="0.2" /><circle cx="35" cy="185" r="5" fill="#d3ffff" fill-opacity="0" /><circle cx="15" cy="195" r="5" fill="#8dffff" fill-opacity="0.5" /><circle cx="25" cy="195" r="5" fill="#b9ffff" fill-opacity="0.1" /><circle cx="35" cy="195" r="5" fill="#68ffff" fill-opacity="0.2" /><circle cx="75" cy="175" r="25" fill="#55ffff" fill-opacity="0.5" /><circle cx="125" cy="175" r="25" fill="#f6ffff" fill-opacity="0.5" /><circle cx="175" cy="175" r="25" fill="#a4ffff" fill-opacity="0" /><circle cx="205" cy="155" r="5" fill="#24ffff" fill-opacity="0.5" /><circle cx="245" cy="155" r="5" fill="#2fffff" fill-opacity="0.5" /><circle cx="215" cy="165" r="5" fill="#d6ffff" fill-opacity="0.5" /><circle cx="225" cy="165" r="5" fill="#73ffff" fill-opacity="0.1" /><circle cx="235" cy="165" r="5" fill="#54ffff" fill-opacity="0.3" /><circle cx="215" cy="185" r="5" fill="#54ffff" fill-opacity="0.5" /><circle cx="225" cy="185" r="5" fill="#afffff" fill-opacity="0" /><circle cx="235" cy="185" r="5" fill="#5cffff" fill-opacity="0.4" /><circle cx="215" cy="195" r="5" fill="#10ffff" fill-opacity="0.1" /><circle cx="225" cy="195" r="5" fill="#36ffff" fill-opacity="0.3" /><circle cx="235" cy="195" r="5" fill="#e3ffff" fill-opacity="0.4" /><circle cx="5" cy="205" r="5" fill="#d8ffff" fill-opacity="0" /><circle cx="45" cy="205" r="5" fill="#0bffff" fill-opacity="0.2" /><circle cx="15" cy="215" r="5" fill="#51ffff" fill-opacity="0" /><circle cx="25" cy="215" r="5" fill="#edffff" fill-opacity="0.3" /><circle cx="35" cy="215" r="5" fill="#e1ffff" fill-opacity="0" /><circle cx="15" cy="235" r="5" fill="#69ffff" fill-opacity="0.3" /><circle cx="25" cy="235" r="5" fill="#26ffff" fill-opacity="0.1" /><circle cx="35" cy="235" r="5" fill="#60ffff" fill-opacity="0.3" /><circle cx="15" cy="245" r="5" fill="#9affff" fill-opacity="0.5" /><circle cx="25" cy="245" r="5" fill="#78ffff" fill-opacity="0.4" /><circle cx="35" cy="245" r="5" fill="#63ffff" fill-opacity="0.3" /><circle cx="75" cy="225" r="25" fill="#8effff" fill-opacity="0.5" /><circle cx="125" cy="225" r="25" fill="#a3ffff" fill-opacity="0.1" /><circle cx="175" cy="225" r="25" fill="#b9ffff" fill-opacity="0.2" /><circle cx="205" cy="205" r="5" fill="#d0ffff" fill-opacity="0" /><circle cx="245" cy="205" r="5" fill="#37ffff" fill-opacity="0.3" /><circle cx="215" cy="215" r="5" fill="#deffff" fill-opacity="0.3" /><circle cx="225" cy="215" r="5" fill="#daffff" fill-opacity="0" /><circle cx="235" cy="215" r="5" fill="#03ffff" fill-opacity="0.4" /><circle cx="215" cy="235" r="5" fill="#55ffff" fill-opacity="0" /><circle cx="225" cy="235" r="5" fill="#10ffff" fill-opacity="0.1" /><circle cx="235" cy="235" r="5" fill="#0bffff" fill-opacity="0.4" /><circle cx="215" cy="245" r="5" fill="#08ffff" fill-opacity="0.3" /><circle cx="225" cy="245" r="5" fill="#f8ffff" fill-opacity="0.1" /><circle cx="235" cy="245" r="5" fill="#81ffff" fill-opacity="0" /><circle cx="225" cy="25" r="25" fill="#ffe4ff" fill-opacity="0.2" /><circle cx="255" cy="5" r="5" fill="#ff92ff" fill-opacity="0.2" /><circle cx="265" cy="15" r="5" fill="#ff30ff" fill-opacity="0.2" /><circle cx="275" cy="15" r="5" fill="#ffc3ff" fill-opacity="0.1" /><circle cx="285" cy="15" r="5" fill="#ff10ff" fill-opacity="0.4" /><circle cx="295" cy="15" r="5" fill="#ff26ff" fill-opacity="0.5" /><circle cx="265" cy="25" r="5" fill="#ffd2ff" fill-opacity="0.4" /><circle cx="275" cy="25" r="5" fill="#ff92ff" fill-opacity="0.4" /><circle cx="285" cy="25" r="5" fill="#ff43ff" fill-opacity="0.4" /><circle cx="295" cy="25" r="5" fill="#ffbfff" fill-opacity="0.1" /><circle cx="265" cy="35" r="5" fill="#ff8bff" fill-opacity="0.1" /><circle cx="275" cy="35" r="5" fill="#ff66ff" fill-opacity="0.4" /><circle cx="285" cy="35" r="5" fill="#ff0eff" fill-opacity="0.1" /><circle cx="295" cy="35" r="5" fill="#ffb6ff" fill-opacity="0.2" /><circle cx="255" cy="45" r="5" fill="#ff32ff" fill-opacity="0.4" /><circle cx="305" cy="5" r="5" fill="#ff29ff" fill-opacity="0.4" /><circle cx="315" cy="15" r="5" fill="#ff2eff" fill-opacity="0.2" /><circle cx="325" cy="15" r="5" fill="#ff85ff" fill-opacity="0.4" /><circle cx="335" cy="15" r="5" fill="#ff27ff" fill-opacity="0.3" /><circle cx="345" cy="15" r="5" fill="#ff39ff" fill-opacity="0.4" /><circle cx="315" cy="25" r="5" fill="#ff04ff" fill-opacity="0.3" /><circle cx="325" cy="25" r="5" fill="#ff8eff" fill-opacity="0.4" /><circle cx="335" cy="25" r="5" fill="#ffeeff" fill-opacity="0.5" /><circle cx="345" cy="25" r="5" fill="#ffddff" fill-opacity="0.1" /><circle cx="315" cy="35" r="5" fill="#ff54ff" fill-opacity="0" /><circle cx="325" cy="35" r="5" fill="#ff5eff" fill-opacity="0" /><circle cx="335" cy="35" r="5" fill="#ffa7ff" fill-opacity="0.5" /><circle cx="345" cy="35" r="5" fill="#ff24ff" fill-opacity="0.5" /><circle cx="305" cy="45" r="5" fill="#ffa0ff" fill-opacity="0.4" /><circle cx="355" cy="5" r="5" fill="#ffffff" fill-opacity="0.3" /><circle cx="365" cy="15" r="5" fill="#ffd8ff" fill-opacity="0.3" /><circle cx="375" cy="15" r="5" fill="#ffc9ff" fill-opacity="0" /><circle cx="385" cy="15" r="5" fill="#ff54ff" fill-opacity="0.3" /><circle cx="395" cy="15" r="5" fill="#ffc9ff" fill-opacity="0.5" /><circle cx="365" cy="25" r="5" fill="#ff12ff" fill-opacity="0" /><circle cx="375" cy="25" r="5" fill="#ff73ff" fill-opacity="0.3" /><circle cx="385" cy="25" r="5" fill="#ffecff" fill-opacity="0.5" /><circle cx="395" cy="25" r="5" fill="#ff71ff" fill-opacity="0.4" /><circle cx="365" cy="35" r="5" fill="#ff68ff" fill-opacity="0.3" /><circle cx="375" cy="35" r="5" fill="#ff2aff" fill-opacity="0" /><circle cx="385" cy="35" r="5" fill="#ffa6ff" fill-opacity="0.3" /><circle cx="395" cy="35" r="5" fill="#ff68ff" fill-opacity="0.1" /><circle cx="355" cy="45" r="5" fill="#ffd9ff" fill-opacity="0.4" /><circle cx="405" cy="5" r="5" fill="#fff7ff" fill-opacity="0.3" /><circle cx="415" cy="15" r="5" fill="#ffb2ff" fill-opacity="0.1" /><circle cx="425" cy="15" r="5" fill="#ffbeff" fill-opacity="0.2" /><circle cx="435" cy="15" r="5" fill="#ff51ff" fill-opacity="0.2" /><circle cx="445" cy="15" r="5" fill="#ffb3ff" fill-opacity="0.5" /><circle cx="415" cy="25" r="5" fill="#ff88ff" fill-opacity="0" /><circle cx="425" cy="25" r="5" fill="#ffb0ff" fill-opacity="0" /><circle cx="435" cy="25" r="5" fill="#ff0bff" fill-opacity="0.4" /><circle cx="445" cy="25" r="5" fill="#ff82ff" fill-opacity="0.5" /><circle cx="415" cy="35" r="5" fill="#ffcdff" fill-opacity="0.5" /><circle cx="425" cy="35" r="5" fill="#ffccff" fill-opacity="0.2" /><circle cx="435" cy="35" r="5" fill="#fff2ff" fill-opacity="0.5" /><circle cx="445" cy="35" r="5" fill="#ffe6ff" fill-opacity="0.3" /><circle cx="405" cy="45" r="5" fill="#ffb7ff" fill-opacity="0.3" /><circle cx="205" cy="55" r="5" fill="#ff8cff" fill-opacity="0.3" /><circle cx="215" cy="65" r="5" fill="#ff68ff" fill-opacity="0" /><circle cx="225" cy="65" r="5" fill="#ffd9ff" fill-opacity="0.3" /><circle cx="235" cy="65" r="5" fill="#ffc2ff" fill-opacity="0.2" /><circle cx="245" cy="65" r="5" fill="#ff5fff" fill-opacity="0.3" /><circle cx="215" cy="75" r="5" fill="#ffa7ff" fill-opacity="0" /><circle cx="225" cy="75" r="5" fill="#ffdfff" fill-opacity="0" /><circle cx="235" cy="75" r="5" fill="#ff6aff" fill-opacity="0.4" /><circle cx="245" cy="75" r="5" fill="#ffe0ff" fill-opacity="0.2" /><circle cx="215" cy="85" r="5" fill="#ff1cff" fill-opacity="0.2" /><circle cx="225" cy="85" r="5" fill="#ff71ff" fill-opacity="0.5" /><circle cx="235" cy="85" r="5" fill="#ff84ff" fill-opacity="0" /><circle cx="245" cy="85" r="5" fill="#ffc2ff" fill-opacity="0" /><circle cx="205" cy="95" r="5" fill="#ff86ff" fill-opacity="0.1" /><circle cx="275" cy="75" r="25" fill="#ffd4ff" fill-opacity="0" /><circle cx="325" cy="75" r="25" fill="#ff50ff" fill-opacity="0.1" /><circle cx="375" cy="75" r="25" fill="#ff1bff" fill-opacity="0.3" /><circle cx="425" cy="75" r="25" fill="#fff9ff" fill-opacity="0.5" /><circle cx="205" cy="105" r="5" fill="#ffcaff" fill-opacity="0.2" /><circle cx="215" cy="115" r="5" fill="#ff4bff" fill-opacity="0.5" /><circle cx="225" cy="115" r="5" fill="#ff68ff" fill-opacity="0.2" /><circle cx="235" cy="115" r="5" fill="#ff87ff" fill-opacity="0" /><circle cx="245" cy="115" r="5" fill="#ff0bff" fill-opacity="0.5" /><circle cx="215" cy="125" r="5" fill="#ff84ff" fill-opacity="0.1" /><circle cx="225" cy="125" r="5" fill="#ff60ff" fill-opacity="0" /><circle cx="235" cy="125" r="5" fill="#ff12ff" fill-opacity="0.1" /><circle cx="245" cy="125" r="5" fill="#ff79ff" fill-opacity="0.1" /><circle cx="215" cy="135" r="5" fill="#ff0fff" fill-opacity="0.5" /><circle cx="225" cy="135" r="5" fill="#ff35ff" fill-opacity="0.3" /><circle cx="235" cy="135" r="5" fill="#ffc1ff" fill-opacity="0.3" /><circle cx="245" cy="135" r="5" fill="#ff33ff" fill-opacity="0.4" /><circle cx="205" cy="145" r="5" fill="#ff04ff" fill-opacity="0.5" /><circle cx="275" cy="125" r="25" fill="#ff9bff" fill-opacity="0.1" /><circle cx="325" cy="125" r="25" fill="#ffeaff" fill-opacity="0" /><circle cx="375" cy="125" r="25" fill="#ff3bff" fill-opacity="0.2" /><circle cx="425" cy="125" r="25" fill="#ffd8ff" fill-opacity="0.3" /><circle cx="205" cy="155" r="5" fill="#ffc1ff" fill-opacity="0.3" /><circle cx="215" cy="165" r="5" fill="#ffb0ff" fill-opacity="0.1" /><circle cx="225" cy="165" r="5" fill="#ffd5ff" fill-opacity="0.5" /><circle cx="235" cy="165" r="5" fill="#ffefff" fill-opacity="0.5" /><circle cx="245" cy="165" r="5" fill="#ffeaff" fill-opacity="0.1" /><circle cx="215" cy="175" r="5" fill="#ffcfff" fill-opacity="0.3" /><circle cx="225" cy="175" r="5" fill="#ffbeff" fill-opacity="0.2" /><circle cx="235" cy="175" r="5" fill="#ff4aff" fill-opacity="0.4" /><circle cx="245" cy="175" r="5" fill="#fff1ff" fill-opacity="0.4" /><circle cx="215" cy="185" r="5" fill="#fff6ff" fill-opacity="0.4" /><circle cx="225" cy="185" r="5" fill="#ff2fff" fill-opacity="0.2" /><circle cx="235" cy="185" r="5" fill="#ff95ff" fill-opacity="0.3" /><circle cx="245" cy="185" r="5" fill="#ff74ff" fill-opacity="0.2" /><circle cx="205" cy="195" r="5" fill="#ff71ff" fill-opacity="0" /><circle cx="275" cy="175" r="25" fill="#ff77ff" fill-opacity="0.5" /><circle cx="325" cy="175" r="25" fill="#ffb0ff" fill-opacity="0.3" /><circle cx="375" cy="175" r="25" fill="#ff30ff" fill-opacity="0.5" /><circle cx="425" cy="175" r="25" fill="#ff26ff" fill-opacity="0.2" /><circle cx="225" cy="225" r="25" fill="#ff3dff" fill-opacity="0.3" /><circle cx="255" cy="205" r="5" fill="#ff9bff" fill-opacity="0.1" /><circle cx="265" cy="215" r="5" fill="#ff94ff" fill-opacity="0.2" /><circle cx="275" cy="215" r="5" fill="#ff8fff" fill-opacity="0.2" /><circle cx="285" cy="215" r="5" fill="#ff5eff" fill-opacity="0.4" /><circle cx="295" cy="215" r="5" fill="#fff8ff" fill-opacity="0.2" /><circle cx="265" cy="225" r="5" fill="#ff13ff" fill-opacity="0.3" /><circle cx="275" cy="225" r="5" fill="#ffeeff" fill-opacity="0.4" /><circle cx="285" cy="225" r="5" fill="#fffeff" fill-opacity="0.3" /><circle cx="295" cy="225" r="5" fill="#ff12ff" fill-opacity="0.2" /><circle cx="265" cy="235" r="5" fill="#ff81ff" fill-opacity="0.4" /><circle cx="275" cy="235" r="5" fill="#ff17ff" fill-opacity="0.3" /><circle cx="285" cy="235" r="5" fill="#ff57ff" fill-opacity="0.2" /><circle cx="295" cy="235" r="5" fill="#ff3aff" fill-opacity="0.3" /><circle cx="255" cy="245" r="5" fill="#ff20ff" fill-opacity="0.4" /><circle cx="305" cy="205" r="5" fill="#ff13ff" fill-opacity="0.2" /><circle cx="315" cy="215" r="5" fill="#ff3aff" fill-opacity="0.4" /><circle cx="325" cy="215" r="5" fill="#ffadff" fill-opacity="0.5" /><circle cx="335" cy="215" r="5" fill="#ff30ff" fill-opacity="0.2" /><circle cx="345" cy="215" r="5" fill="#ff8fff" fill-opacity="0.5" /><circle cx="315" cy="225" r="5" fill="#fff2ff" fill-opacity="0.4" /><circle cx="325" cy="225" r="5" fill="#ff53ff" fill-opacity="0.5" /><circle cx="335" cy="225" r="5" fill="#ff72ff" fill-opacity="0.2" /><circle cx="345" cy="225" r="5" fill="#ff52ff" fill-opacity="0.2" /><circle cx="315" cy="235" r="5" fill="#ffa4ff" fill-opacity="0.5" /><circle cx="325" cy="235" r="5" fill="#ff3aff" fill-opacity="0.5" /><circle cx="335" cy="235" r="5" fill="#ffe8ff" fill-opacity="0.4" /><circle cx="345" cy="235" r="5" fill="#ffbcff" fill-opacity="0.4" /><circle cx="305" cy="245" r="5" fill="#fff0ff" fill-opacity="0.5" /><circle cx="355" cy="205" r="5" fill="#ff5aff" fill-opacity="0.3" /><circle cx="365" cy="215" r="5" fill="#ffdeff" fill-opacity="0.5" /><circle cx="375" cy="215" r="5" fill="#ffebff" fill-opacity="0.1" /><circle cx="385" cy="215" r="5" fill="#ff27ff" fill-opacity="0.5" /><circle cx="395" cy="215" r="5" fill="#ff82ff" fill-opacity="0.4" /><circle cx="365" cy="225" r="5" fill="#ff89ff" fill-opacity="0" /><circle cx="375" cy="225" r="5" fill="#ffd7ff" fill-opacity="0.4" /><circle cx="385" cy="225" r="5" fill="#ff0fff" fill-opacity="0.5" /><circle cx="395" cy="225" r="5" fill="#ffb1ff" fill-opacity="0.2" /><circle cx="365" cy="235" r="5" fill="#ff44ff" fill-opacity="0.3" /><circle cx="375" cy="235" r="5" fill="#ffc7ff" fill-opacity="0.3" /><circle cx="385" cy="235" r="5" fill="#ffd8ff" fill-opacity="0.3" /><circle cx="395" cy="235" r="5" fill="#ff49ff" fill-opacity="0.3" /><circle cx="355" cy="245" r="5" fill="#ffb0ff" fill-opacity="0.4" /><circle cx="405" cy="205" r="5" fill="#ff78ff" fill-opacity="0.2" /><circle cx="415" cy="215" r="5" fill="#ff8dff" fill-opacity="0.4" /><circle cx="425" cy="215" r="5" fill="#ff23ff" fill-opacity="0.2" /><circle cx="435" cy="215" r="5" fill="#ff50ff" fill-opacity="0.2" /><circle cx="445" cy="215" r="5" fill="#ff57ff" fill-opacity="0.3" /><circle cx="415" cy="225" r="5" fill="#ff47ff" fill-opacity="0.4" /><circle cx="425" cy="225" r="5" fill="#ff86ff" fill-opacity="0.1" /><circle cx="435" cy="225" r="5" fill="#ffceff" fill-opacity="0.4" /><circle cx="445" cy="225" r="5" fill="#ff8aff" fill-opacity="0.1" /><circle cx="415" cy="235" r="5" fill="#ffa5ff" fill-opacity="0.2" /><circle cx="425" cy="235" r="5" fill="#ffe7ff" fill-opacity="0.1" /><circle cx="435" cy="235" r="5" fill="#ffb3ff" fill-opacity="0.2" /><circle cx="445" cy="235" r="5" fill="#ff32ff" fill-opacity="0" /><circle cx="405" cy="245" r="5" fill="#ffeeff" fill-opacity="0.1" /><circle cx="225" cy="225" r="25" fill="#ffff35" fill-opacity="0.5" /><circle cx="255" cy="205" r="5" fill="#ffff5b" fill-opacity="0.1" /><circle cx="255" cy="215" r="5" fill="#ffffc1" fill-opacity="0.1" /><circle cx="265" cy="215" r="5" fill="#ffff89" fill-opacity="0.3" /><circle cx="275" cy="215" r="5" fill="#ffff42" fill-opacity="0.1" /><circle cx="285" cy="215" r="5" fill="#ffff60" fill-opacity="0.2" /><circle cx="255" cy="225" r="5" fill="#ffff72" fill-opacity="0.4" /><circle cx="265" cy="225" r="5" fill="#fffff3" fill-opacity="0.2" /><circle cx="275" cy="225" r="5" fill="#ffff0f" fill-opacity="0.2" /><circle cx="285" cy="225" r="5" fill="#ffffb6" fill-opacity="0.5" /><circle cx="265" cy="235" r="5" fill="#ffff26" fill-opacity="0.5" /><circle cx="275" cy="235" r="5" fill="#fffffc" fill-opacity="0.3" /><circle cx="285" cy="235" r="5" fill="#ffff53" fill-opacity="0.5" /><circle cx="255" cy="245" r="5" fill="#ffffb7" fill-opacity="0.4" /><circle cx="295" cy="245" r="5" fill="#ffffca" fill-opacity="0.1" /><circle cx="305" cy="205" r="5" fill="#ffffc8" fill-opacity="0.1" /><circle cx="305" cy="215" r="5" fill="#fffff2" fill-opacity="0" /><circle cx="315" cy="215" r="5" fill="#ffffaf" fill-opacity="0" /><circle cx="325" cy="215" r="5" fill="#ffff96" fill-opacity="0.1" /><circle cx="335" cy="215" r="5" fill="#ffff98" fill-opacity="0" /><circle cx="305" cy="225" r="5" fill="#ffff9d" fill-opacity="0.2" /><circle cx="315" cy="225" r="5" fill="#ffff21" fill-opacity="0.4" /><circle cx="325" cy="225" r="5" fill="#ffff45" fill-opacity="0" /><circle cx="335" cy="225" r="5" fill="#ffffbc" fill-opacity="0.1" /><circle cx="315" cy="235" r="5" fill="#ffff77" fill-opacity="0.2" /><circle cx="325" cy="235" r="5" fill="#ffff38" fill-opacity="0.4" /><circle cx="335" cy="235" r="5" fill="#ffff5a" fill-opacity="0.1" /><circle cx="305" cy="245" r="5" fill="#ffff54" fill-opacity="0.3" /><circle cx="345" cy="245" r="5" fill="#ffff50" fill-opacity="0.3" /><circle cx="355" cy="205" r="5" fill="#ffff6e" fill-opacity="0.3" /><circle cx="355" cy="215" r="5" fill="#ffffcc" fill-opacity="0.3" /><circle cx="365" cy="215" r="5" fill="#ffff04" fill-opacity="0" /><circle cx="375" cy="215" r="5" fill="#ffffe1" fill-opacity="0.2" /><circle cx="385" cy="215" r="5" fill="#ffff6d" fill-opacity="0.2" /><circle cx="355" cy="225" r="5" fill="#ffffae" fill-opacity="0.4" /><circle cx="365" cy="225" r="5" fill="#ffffe4" fill-opacity="0.2" /><circle cx="375" cy="225" r="5" fill="#ffff59" fill-opacity="0.1" /><circle cx="385" cy="225" r="5" fill="#ffff87" fill-opacity="0.3" /><circle cx="365" cy="235" r="5" fill="#ffffb9" fill-opacity="0.2" /><circle cx="375" cy="235" r="5" fill="#ffff6d" fill-opacity="0.5" /><circle cx="385" cy="235" r="5" fill="#ffffd1" fill-opacity="0" /><circle cx="355" cy="245" r="5" fill="#ffff51" fill-opacity="0.3" /><circle cx="395" cy="245" r="5" fill="#ffff76" fill-opacity="0.2" /><circle cx="405" cy="205" r="5" fill="#ffffa8" fill-opacity="0.1" /><circle cx="405" cy="215" r="5" fill="#ffff9e" fill-opacity="0" /><circle cx="415" cy="215" r="5" fill="#ffff15" fill-opacity="0.3" /><circle cx="425" cy="215" r="5" fill="#ffff3b" fill-opacity="0.2" /><circle cx="435" cy="215" r="5" fill="#ffff13" fill-opacity="0.4" /><circle cx="405" cy="225" r="5" fill="#ffff70" fill-opacity="0.5" /><circle cx="415" cy="225" r="5" fill="#ffff70" fill-opacity="0.5" /><circle cx="425" cy="225" r="5" fill="#ffffdd" fill-opacity="0.2" /><circle cx="435" cy="225" r="5" fill="#ffff8a" fill-opacity="0.3" /><circle cx="415" cy="235" r="5" fill="#ffff44" fill-opacity="0.3" /><circle cx="425" cy="235" r="5" fill="#ffffe5" fill-opacity="0.5" /><circle cx="435" cy="235" r="5" fill="#ffffc3" fill-opacity="0" /><circle cx="405" cy="245" r="5" fill="#ffff60" fill-opacity="0.4" /><circle cx="445" cy="245" r="5" fill="#ffffd6" fill-opacity="0.3" /><circle cx="225" cy="275" r="25" fill="#ffff05" fill-opacity="0.2" /><circle cx="275" cy="275" r="25" fill="#ffff94" fill-opacity="0.2" /><circle cx="325" cy="275" r="25" fill="#ffff28" fill-opacity="0.3" /><circle cx="375" cy="275" r="25" fill="#ffff0a" fill-opacity="0.3" /><circle cx="405" cy="255" r="5" fill="#ffff30" fill-opacity="0" /><circle cx="405" cy="265" r="5" fill="#ffff18" fill-opacity="0.4" /><circle cx="415" cy="265" r="5" fill="#ffff0b" fill-opacity="0" /><circle cx="425" cy="265" r="5" fill="#ffff82" fill-opacity="0.2" /><circle cx="435" cy="265" r="5" fill="#ffff9d" fill-opacity="0.2" /><circle cx="405" cy="275" r="5" fill="#ffff44" fill-opacity="0.4" /><circle cx="415" cy="275" r="5" fill="#ffffdd" fill-opacity="0.2" /><circle cx="425" cy="275" r="5" fill="#ffff42" fill-opacity="0.3" /><circle cx="435" cy="275" r="5" fill="#ffff1d" fill-opacity="0.1" /><circle cx="415" cy="285" r="5" fill="#ffffbb" fill-opacity="0.1" /><circle cx="425" cy="285" r="5" fill="#ffff33" fill-opacity="0.1" /><circle cx="435" cy="285" r="5" fill="#ffff97" fill-opacity="0.1" /><circle cx="405" cy="295" r="5" fill="#ffff03" fill-opacity="0.3" /><circle cx="445" cy="295" r="5" fill="#ffffd3" fill-opacity="0.1" /><circle cx="225" cy="325" r="25" fill="#ffff56" fill-opacity="0.5" /><circle cx="275" cy="325" r="25" fill="#ffffe6" fill-opacity="0.4" /><circle cx="325" cy="325" r="25" fill="#ffff32" fill-opacity="0.5" /><circle cx="375" cy="325" r="25" fill="#ffff87" fill-opacity="0.4" /><circle cx="405" cy="305" r="5" fill="#ffffce" fill-opacity="0" /><circle cx="405" cy="315" r="5" fill="#ffff4e" fill-opacity="0.3" /><circle cx="415" cy="315" r="5" fill="#ffff35" fill-opacity="0.4" /><circle cx="425" cy="315" r="5" fill="#ffff80" fill-opacity="0.1" /><circle cx="435" cy="315" r="5" fill="#ffff2f" fill-opacity="0.1" /><circle cx="405" cy="325" r="5" fill="#ffff96" fill-opacity="0.1" /><circle cx="415" cy="325" r="5" fill="#ffff9a" fill-opacity="0.2" /><circle cx="425" cy="325" r="5" fill="#ffff7d" fill-opacity="0.5" /><circle cx="435" cy="325" r="5" fill="#ffffef" fill-opacity="0.5" /><circle cx="415" cy="335" r="5" fill="#ffff82" fill-opacity="0.3" /><circle cx="425" cy="335" r="5" fill="#ffff3a" fill-opacity="0.3" /><circle cx="435" cy="335" r="5" fill="#ffff71" fill-opacity="0.2" /><circle cx="405" cy="345" r="5" fill="#ffff85" fill-opacity="0.1" /><circle cx="445" cy="345" r="5" fill="#ffff6f" fill-opacity="0.2" /><circle cx="205" cy="355" r="5" fill="#ffff73" fill-opacity="0.5" /><circle cx="205" cy="365" r="5" fill="#ffff45" fill-opacity="0.3" /><circle cx="215" cy="365" r="5" fill="#ffffdc" fill-opacity="0.1" /><circle cx="225" cy="365" r="5" fill="#ffffd0" fill-opacity="0.4" /><circle cx="235" cy="365" r="5" fill="#ffff0d" fill-opacity="0.5" /><circle cx="205" cy="375" r="5" fill="#fffff1" fill-opacity="0.4" /><circle cx="215" cy="375" r="5" fill="#ffff4f" fill-opacity="0" /><circle cx="225" cy="375" r="5" fill="#ffff6a" fill-opacity="0.3" /><circle cx="235" cy="375" r="5" fill="#ffff17" fill-opacity="0.2" /><circle cx="215" cy="385" r="5" fill="#ffff29" fill-opacity="0.3" /><circle cx="225" cy="385" r="5" fill="#ffff09" fill-opacity="0.3" /><circle cx="235" cy="385" r="5" fill="#ffffe4" fill-opacity="0.5" /><circle cx="205" cy="395" r="5" fill="#ffffe5" fill-opacity="0.5" /><circle cx="245" cy="395" r="5" fill="#ffff42" fill-opacity="0.1" /><circle cx="275" cy="375" r="25" fill="#ffff55" fill-opacity="0.4" /><circle cx="325" cy="375" r="25" fill="#ffff76" fill-opacity="0.1" /><circle cx="375" cy="375" r="25" fill="#ffff38" fill-opacity="0.3" /><circle cx="405" cy="355" r="5" fill="#ffff7f" fill-opacity="0.3" /><circle cx="405" cy="365" r="5" fill="#ffffcf" fill-opacity="0.3" /><circle cx="415" cy="365" r="5" fill="#ffffec" fill-opacity="0.1" /><circle cx="425" cy="365" r="5" fill="#ffff71" fill-opacity="0.5" /><circle cx="435" cy="365" r="5" fill="#ffff61" fill-opacity="0.1" /><circle cx="405" cy="375" r="5" fill="#ffffc6" fill-opacity="0" /><circle cx="415" cy="375" r="5" fill="#ffffbe" fill-opacity="0.5" /><circle cx="425" cy="375" r="5" fill="#ffff48" fill-opacity="0.4" /><circle cx="435" cy="375" r="5" fill="#ffffb0" fill-opacity="0.5" /><circle cx="415" cy="385" r="5" fill="#ffff3d" fill-opacity="0" /><circle cx="425" cy="385" r="5" fill="#ffff92" fill-opacity="0.1" /><circle cx="435" cy="385" r="5" fill="#ffff4a" fill-opacity="0.3" /><circle cx="405" cy="395" r="5" fill="#ffff02" fill-opacity="0.3" /><circle cx="445" cy="395" r="5" fill="#ffff8c" fill-opacity="0.3" /><circle cx="225" cy="425" r="25" fill="#ffff40" fill-opacity="0.3" /><circle cx="255" cy="405" r="5" fill="#ffffe6" fill-opacity="0.2" /><circle cx="255" cy="415" r="5" fill="#ffffc1" fill-opacity="0.1" /><circle cx="265" cy="415" r="5" fill="#ffff2f" fill-opacity="0.5" /><circle cx="275" cy="415" r="5" fill="#ffff74" fill-opacity="0.1" /><circle cx="285" cy="415" r="5" fill="#ffff89" fill-opacity="0" /><circle cx="255" cy="425" r="5" fill="#ffffc1" fill-opacity="0.4" /><circle cx="265" cy="425" r="5" fill="#ffff10" fill-opacity="0.3" /><circle cx="275" cy="425" r="5" fill="#ffff2b" fill-opacity="0.3" /><circle cx="285" cy="425" r="5" fill="#ffff8d" fill-opacity="0.2" /><circle cx="265" cy="435" r="5" fill="#ffffce" fill-opacity="0.3" /><circle cx="275" cy="435" r="5" fill="#ffff39" fill-opacity="0.1" /><circle cx="285" cy="435" r="5" fill="#fffffb" fill-opacity="0.5" /><circle cx="255" cy="445" r="5" fill="#ffff44" fill-opacity="0.5" /><circle cx="295" cy="445" r="5" fill="#ffffba" fill-opacity="0.4" /><circle cx="305" cy="405" r="5" fill="#ffffef" fill-opacity="0.1" /><circle cx="305" cy="415" r="5" fill="#ffff17" fill-opacity="0.1" /><circle cx="315" cy="415" r="5" fill="#ffffaf" fill-opacity="0.5" /><circle cx="325" cy="415" r="5" fill="#ffff7c" fill-opacity="0.5" /><circle cx="335" cy="415" r="5" fill="#fffffe" fill-opacity="0.4" /><circle cx="305" cy="425" r="5" fill="#ffffd2" fill-opacity="0.5" /><circle cx="315" cy="425" r="5" fill="#ffff95" fill-opacity="0" /><circle cx="325" cy="425" r="5" fill="#ffffc3" fill-opacity="0" /><circle cx="335" cy="425" r="5" fill="#ffff26" fill-opacity="0" /><circle cx="315" cy="435" r="5" fill="#ffffad" fill-opacity="0.5" /><circle cx="325" cy="435" r="5" fill="#ffff55" fill-opacity="0.5" /><circle cx="335" cy="435" r="5" fill="#ffff1c" fill-opacity="0" /><circle cx="305" cy="445" r="5" fill="#ffff4b" fill-opacity="0.4" /><circle cx="345" cy="445" r="5" fill="#ffff73" fill-opacity="0.4" /><circle cx="355" cy="405" r="5" fill="#ffff24" fill-opacity="0.1" /><circle cx="355" cy="415" r="5" fill="#ffff8f" fill-opacity="0.2" /><circle cx="365" cy="415" r="5" fill="#ffff3b" fill-opacity="0" /><circle cx="375" cy="415" r="5" fill="#ffff28" fill-opacity="0.1" /><circle cx="385" cy="415" r="5" fill="#ffffe3" fill-opacity="0.3" /><circle cx="355" cy="425" r="5" fill="#ffff79" fill-opacity="0.3" /><circle cx="365" cy="425" r="5" fill="#ffffb2" fill-opacity="0.4" /><circle cx="375" cy="425" r="5" fill="#ffff67" fill-opacity="0.5" /><circle cx="385" cy="425" r="5" fill="#ffff15" fill-opacity="0" /><circle cx="365" cy="435" r="5" fill="#ffff80" fill-opacity="0" /><circle cx="375" cy="435" r="5" fill="#ffffaf" fill-opacity="0.5" /><circle cx="385" cy="435" r="5" fill="#ffff6b" fill-opacity="0.1" /><circle cx="355" cy="445" r="5" fill="#ffffb3" fill-opacity="0.3" /><circle cx="395" cy="445" r="5" fill="#ffffc0" fill-opacity="0.2" /><circle cx="425" cy="425" r="25" fill="#ffffa9" fill-opacity="0" /></svg>