<?xml version="1.0" encoding="utf-8"?><svg width="450" height="450" xmlns="http://www.w3.org/2000/svg" xmlns:xlink="http://www.w3.org/1999/xlink"><circle cx="25" cy="25" r="25" fill="#f6ffff" fill-opacity="0.4" /><circle cx="55" cy="5" r="5" fill="#86ffff" fill-opacity="0.2" /><circle cx="95" cy="5" r="5" fill="#b3ffff" fill-opacity="0.2" /><circle cx="65" cy="15" r="5" fill="#51ffff" fill-opacity="0.2" /><circle cx="75" cy="15" r="5" fill="#1fffff" fill-opacity="0.1" /><circle cx="85" cy="15" r="5" fill="#caffff" fill-opacity="0.2" /><circle cx="65" cy="35" r="5" fill="#3bffff" fill-opacity="0.4" /><circle cx="75" cy="35" r="5" fill="#a5ffff" fill-opacity="0.3" /><circle cx="85" cy="35" r="5" fill="#9fffff" fill-opacity="0.5" /><circle cx="65" cy="45" r="5" fill="#f8ffff" fill-opacity="0.3" /><circle cx="75" cy="45" r="5" fill="#eeffff" fill-opacity="0.5" /><circle cx="85" cy="45" r="5" fill="#adffff" fill-opacity="0.1" /><circle cx="105" cy="5" r="5" fill="#a9ffff" fill-opacity="0.4" /><circle cx="145" cy="5" r="5" fill="#8affff" fill-opacity="0" /><circle cx="115" cy="15" r="5" fill="#a6ffff" fill-opacity="0.5" /><circle cx="125" cy="15" r="5" fill="#9bffff" fill-opacity="0.1" /><circle cx="135" cy="15" r="5" fill="#b0ffff" fill-opacity="0.2" /><circle cx="115" cy="35" r="5" fill="#bdffff" fill-opacity="0.5" /><circle cx="125" cy="35" r="5" fill="#79ffff" fill-opacity="0.4" /><circle cx="135" cy="35" r="5" fill="#81ffff" fill-opacity="0" /><circle cx="115" cy="45" r="5" fill="#1fffff" fill-opacity="0.1" /><circle cx="125" cy="45" r="5" fill="#e4ffff" fill-opacity="0.3" /><circle cx="135" cy="45" r="5" fill="#e5ffff" fill-opacity="0.1" /><circle cx="155" cy="5" r="5" fill="#02ffff" fill-opacity="0" /><circle cx="195" cy="5" r="5" fill="#c7ffff" fill-opacity="0.4" /><circle cx="165" cy="15" r="5" fill="#76ffff" fill-opacity="0" /><circle cx="175" cy="15" r="5" fill="#0affff" fill-opacity="0.4" /><circle cx="185" cy="15" r="5" fill="#d1ffff" fill-opacity="0.2" /><circle cx="165" cy="35" r="5" fill="#c5ffff" fill-opacity="0.2" /><circle cx="175" cy="35" r="5" fill="#38ffff" fill-opacity="0.3" /><circle cx="185" cy="35" r="5" fill="#0effff" fill-opacity="0.4" /><circle cx="165" cy="45" r="5" fill="#6affff" fill-opacity="0.5" /><circle cx="175" cy="45" r="5" fill="#f8ffff" fill-opacity="0.3" /><circle cx="185" cy="45" r="5" fill="#52ffff" fill-opacity="0.5" /><circle cx="225" cy="25" r="25" fill="#b3ffff" fill-opacity="0.5" /><circle cx="5" cy="55" r="5" fill="#eaffff" fill-opacity="0.3" /><circle cx="45" cy="55" r="5" fill="#08ffff" fill-opacity="0" /><circle cx="15" cy="65" r="5" fill="#17ffff" fill-opacity="0" /><circle cx="25" cy="65" r="5" fill="#7fffff" fill-opacity="0.1" /><circle cx="35" cy="65" r="5" fill="#a8ffff" fill-opacity="0.4" /><circle cx="15" cy="85" r="5" fill="#afffff" fill-opacity="0.1" /><circle cx="25" cy="85" r="5" fill="#62ffff" fill-opacity="0.5" /><circle cx="35" cy="85" r="5" fill="#15ffff" fill-opacity="0.1" /><circle cx="15" cy="95" r="5" fill="#0cffff" fill-opacity="0" /><circle cx="25" cy="95" r="5" fill="#3bffff" fill-opacity="0.3" /><circle cx="35" cy="95" r="5" fill="#65ffff" fill-opacity="0.4" /><circle cx="75" cy="75" r="25" fill="#24ffff" fill-opacity="0.2" /><circle cx="125" cy="75" r="25" fill="#87ffff" fill-opacity="0.4" /><circle cx="175" cy="75" r="25" fill="#dcffff" fill-opacity="0.2" /><circle cx="205" cy="55" r="5" fill="#3cffff" fill-opacity="0" /><circle cx="245" cy="55" r="5" fill="#3affff" fill-opacity="0" /><circle cx="215" cy="65" r="5" fill="#04ffff" fill-opacity="0.2" /><circle cx="225" cy="65" r="5" fill="#e6ffff" fill-opacity="0.1" /><circle cx="235" cy="65" r="5" fill="#31ffff" fill-opacity="0" /><circle cx="215" cy="85" r="5" fill="#f2ffff" fill-opacity="0.1" /><circle cx="225" cy="85" r="5" fill="#8fffff" fill-opacity="0.5" /><circle cx="235" cy="85" r="5" fill="#90ffff" fill-opacity="0.2" /><circle cx="215" cy="95" r="5" fill="#b7ffff" fill-opacity="0.4" /><circle cx="225" cy="95" r="5" fill="#feffff" fill-opacity="0.3" /><circle cx="235" cy="95" r="5" fill="#e0ffff" fill-opacity="0.5" /><circle cx="5" cy="105" r="5" fill="#84ffff" fill-opacity="0.1" /><circle cx="45" cy="105" r="5" fill="#d9ffff" fill-opacity="0.4" /><circle cx="15" cy="115" r="5" fill="#d0ffff" fill-opacity="0.5" /><circle cx="25" cy="115" r="5" fill="#cbffff" fill-opacity="0.4" /><circle cx="35" cy="115" r="5" fill="#25ffff" fill-opacity="0.1" /><circle cx="15" cy="135" r="5" fill="#57ffff" fill-opacity="0.4" /><circle cx="25" cy="135" r="5" fill="#73ffff" fill-opacity="0.5" /><circle cx="35" cy="135" r="5" fill="#e3ffff" fill-opacity="0.1" /><circle cx="15" cy="145" r="5" fill="#9effff" fill-opacity="0.4" /><circle cx="25" cy="145" r="5" fill="#25ffff" fill-opacity="0.1" /><circle cx="35" cy="145" r="5" fill="#baffff" fill-opacity="0.1" /><circle cx="55" cy="105" r="5" fill="#2effff" fill-opacity="0.4" /><circle cx="95" cy="105" r="5" fill="#e4ffff" fill-opacity="0.1" /><circle cx="65" cy="115" r="5" fill="#67ffff" fill-opacity="0.2" /><circle cx="75" cy="115" r="5" fill="#3cffff" fill-opacity="0.5" /><circle cx="85" cy="115" r="5" fill="#56ffff" fill-opacity="0.3" /><circle cx="65" cy="135" r="5" fill="#63ffff" fill-opacity="0.4" /><circle cx="75" cy="135" r="5" fill="#c5ffff" fill-opacity="0.2" /><circle cx="85" cy="135" r="5" fill="#31ffff" fill-opacity="0.3" /><circle cx="65" cy="145" r="5" fill="#32ffff" fill-opacity="0.4" /><circle cx="75" cy="145" r="5" fill="#abffff" fill-opacity="0.1" /><circle cx="85" cy="145" r="5" fill="#32ffff" fill-opacity="0.3" /><circle cx="105" cy="105" r="5" fill="#ccffff" fill-opacity="0.5" /><circle cx="145" cy="105" r="5" fill="#e6ffff" fill-opacity="0.3" /><circle cx="115" cy="115" r="5" fill="#e4ffff" fill-opacity="0" /><circle cx="125" cy="115" r="5" fill="#4fffff" fill-opacity="0.3" /><circle cx="135" cy="115" r="5" fill="#6affff" fill-opacity="0" /><circle cx="115" cy="135" r="5" fill="#fdffff" fill-opacity="0" /><circle cx="125" cy="135" r="5" fill="#beffff" fill-opacity="0.2" /><circle cx="135" cy="135" r="5" fill="#36ffff" fill-opacity="0.4" /><circle cx="115" cy="145" r="5" fill="#ccffff" fill-opacity="0.5" /><circle cx="125" cy="145" r="5" fill="#baffff" fill-opacity="0.5" /><circle cx="135" cy="145" r="5" fill="#44ffff" fill-opacity="0.1" /><circle cx="155" cy="105" r="5" fill="#4cffff" fill-opacity="0.1" /><circle cx="195" cy="105" r="5" fill="#f4ffff" fill-opacity="0.4" /><circle cx="165" cy="115" r="5" fill="#1cffff" fill-opacity="0.2" /><circle cx="175" cy="115" r="5" fill="#fcffff" fill-opacity="0.4" /><circle cx="185" cy="115" r="5" fill="#91ffff" fill-opacity="0" /><circle cx="165" cy="135" r="5" fill="#dbffff" fill-opacity="0" /><circle cx="175" cy="135" r="5" fill="#8affff" fill-opacity="0.5" /><circle cx="185" cy="135" r="5" fill="#f2ffff" fill-opacity="0.1" /><circle cx="165" cy="145" r="5" fill="#c1ffff" fill-opacity="0" /><circle cx="175" cy="145" r="5" fill="#9affff" fill-opacity="0.5" /><circle cx="185" cy="145" r="5" fill="#abffff" fill-opacity="0.5" /><circle cx="205" cy="105" r="5" fill="#09ffff" fill-opacity="0.2" /><circle cx="245" cy="105" r="5" fill="#a5ffff" fill-opacity="0.4" /><circle cx="215" cy="115" r="5" fill="#cfffff" fill-opacity="0.5" /><circle cx="225" cy="115" r="5" fill="#56ffff" fill-opacity="0.4" /><circle cx="235" cy="115" r="5" fill="#64ffff" fill-opacity="0" /><circle cx="215" cy="135" r="5" fill="#a2ffff" fill-opacity="0.4" /><circle cx="225" cy="135" r="5" fill="#5bffff" fill-opacity="0" /><circle cx="235" cy="135" r="5" fill="#4dffff" fill-opacity="0.3" /><circle cx="215" cy="145" r="5" fill="#a2ffff" fill-opacity="0.2" /><circle cx="225" cy="145" r="5" fill="#e0ffff" fill-opacity="0.1" /><circle cx="235" cy="145" r="5" fill="#bdffff" fill-opacity="0.5" /><circle cx="5" cy="155" r="5" fill="#8fffff" fill-opacity="0.4" /><circle cx="45" cy="155" r="5" fill="#2bffff" fill-opacity="0.4" /><circle cx="15" cy="165" r="5" fill="#48ffff" fill-opacity="0.3" /><circle cx="25" cy="165" r="5" fill="#1fffff" fill-opacity="0.5" /><circle cx="35" cy="165" r="5" fill="#ebffff" fill-opacity="0" /><circle cx="15" cy="185" r="5" fill="#82ffff" fill-opacity="0.1" /><circle cx="25" cy="185" r="5" fill="#72ffff" fill-opacity="0.5" /><circle cx="35" cy="185" r="5" fill="#aeffff" fill-opacity="0.5" /><circle cx="15" cy="195" r="5" fill="#6cffff" fill-opacity="0.4" /><circle cx="25" cy="195" r="5" fill="#16ffff" fill-opacity="0.2" /><circle cx="35" cy="195" r="5" fill="#7fffff" fill-opacity="0.2" /><circle cx="75" cy="175" r="25" fill="#32ffff" fill-opacity="0.4" /><circle cx="125" cy="175" r="25" fill="#b7ffff" fill-opacity="0.5" /><circle cx="175" cy="175" r="25" fill="#b8ffff" fill-opacity="0.4" /><circle cx="205" cy="155" r="5" fill="#13ffff" fill-opacity="0.5" /><circle cx="245" cy="155" r="5" fill="#56ffff" fill-opacity="0.3" /><circle cx="215" cy="165" r="5" fill="#aaffff" fill-opacity="0.2" /><circle cx="225" cy="165" r="5" fill="#51ffff" fill-opacity="0.4" /><circle cx="235" cy="165" r="5" fill="#ecffff" fill-opacity="0.4" /><circle cx="215" cy="185" r="5" fill="#a6ffff" fill-opacity="0.1" /><circle cx="225" cy="185" r="5" fill="#09ffff" fill-opacity="0.2" /><circle cx="235" cy="185" r="5" fill="#2cffff" fill-opacity="0.4" /><circle cx="215" cy="195" r="5" fill="#e4ffff" fill-opacity="0" /><circle cx="225" cy="195" r="5" fill="#84ffff" fill-opacity="0.4" /><circle cx="235" cy="195" r="5" fill="#8bffff" fill-opacity="0.4" /><circle cx="5" cy="205" r="5" fill="#43ffff" fill-opacity="0.2" /><circle cx="45" cy="205" r="5" fill="#12ffff" fill-opacity="0" /><circle cx="15" cy="215" r="5" fill="#29ffff" fill-opacity="0.2" /><circle cx="25" cy="215" r="5" fill="#9effff" fill-opacity="0.4" /><circle cx="35" cy="215" r="5" fill="#8affff" fill-opacity="0.5" /><circle cx="15" cy="235" r="5" fill="#c4ffff" fill-opacity="0.5" /><circle cx="25" cy="235" r="5" fill="#c2ffff" fill-opacity="0.2" /><circle cx="35" cy="235" r="5" fill="#72ffff" fill-opacity="0.1" /><circle cx="15" cy="245" r="5" fill="#57ffff" fill-opacity="0.4" /><circle cx="25" cy="245" r="5" fill="#feffff" fill-opacity="0.5" /><circle cx="35" cy="245" r="5" fill="#30ffff" fill-opacity="0" /><circle cx="75" cy="225" r="25" fill="#b3ffff" fill-opacity="0.1" /><circle cx="125" cy="225" r="25" fill="#5fffff" fill-opacity="0.4" /><circle cx="175" cy="225" r="25" fill="#97ffff" fill-opacity="0.5" /><circle cx="205" cy="205" r="5" fill="#c1ffff" fill-opacity="0" /><circle cx="245" cy="205" r="5" fill="#81ffff" fill-opacity="0.3" /><circle cx="215" cy="215" r="5" fill="#16ffff" fill-opacity="0.4" /><circle cx="225" cy="215" r="5" fill="#80ffff" fill-opacity="0.5" /><circle cx="235" cy="215" r="5" fill="#8dffff" fill-opacity="0.3" /><circle cx="215" cy="235" r="5" fill="#f4ffff" fill-opacity="0.1" /><circle cx="225" cy="235" r="5" fill="#5effff" fill-opacity="0" /><circle cx="235" cy="235" r="5" fill="#79ffff" fill-opacity="0.3" /><circle cx="215" cy="245" r="5" fill="#14ffff" fill-opacity="0" /><circle cx="225" cy="245" r="5" fill="#93ffff" fill-opacity="0.5" /><circle cx="235" cy="245" r="5" fill="#17ffff" fill-opacity="0.1" /><circle cx="225" cy="25" r="25" fill="#ffcbff" fill-opacity="0.1" /><circle cx="255" cy="5" r="5" fill="#ff96ff" fill-opacity="0.5" /><circle cx="265" cy="15" r="5" fill="#ffa4ff" fill-opacity="0" /><circle cx="275" cy="15" r="5" fill="#ff21ff" fill-opacity="0" /><circle cx="285" cy="15" r="5" fill="#ffbeff" fill-opacity="0.3" /><circle cx="295" cy="15" r="5" fill="#ffe9ff" fill-opacity="0.1" /><circle cx="265" cy="25" r="5" fill="#fffbff" fill-opacity="0.3" /><circle cx="275" cy="25" r="5" fill="#ffb7ff" fill-opacity="0.1" /><circle cx="285" cy="25" r="5" fill="#fff2ff" fill-opacity="0.4" /><circle cx="295" cy="25" r="5" fill="#ff3eff" fill-opacity="0.5" /><circle cx="265" cy="35" r="5" fill="#ff5dff" fill-opacity="0.5" /><circle cx="275" cy="35" r="5" fill="#ff6eff" fill-opacity="0.2" /><circle cx="285" cy="35" r="5" fill="#ffe0ff" fill-opacity="0.1" /><circle cx="295" cy="35" r="5" fill="#ffd7ff" fill-opacity="0" /><circle cx="255" cy="45" r="5" fill="#fff5ff" fill-opacity="0.2" /><circle cx="305" cy="5" r="5" fill="#ff85ff" fill-opacity="0.2" /><circle cx="315" cy="15" r="5" fill="#ff0eff" fill-opacity="0" /><circle cx="325" cy="15" r="5" fill="#ff39ff" fill-opacity="0.1" /><circle cx="335" cy="15" r="5" fill="#ff3dff" fill-opacity="0" /><circle cx="345" cy="15" r="5" fill="#ff6aff" fill-opacity="0.2" /><circle cx="315" cy="25" r="5" fill="#ff42ff" fill-opacity="0.1" /><circle cx="325" cy="25" r="5" fill="#ffbcff" fill-opacity="0.5" /><circle cx="335" cy="25" r="5" fill="#ffbbff" fill-opacity="0.2" /><circle cx="345" cy="25" r="5" fill="#fffeff" fill-opacity="0" /><circle cx="315" cy="35" r="5" fill="#ffc7ff" fill-opacity="0.1" /><circle cx="325" cy="35" r="5" fill="#ff48ff" fill-opacity="0.3" /><circle cx="335" cy="35" r="5" fill="#ff2dff" fill-opacity="0.3" /><circle cx="345" cy="35" r="5" fill="#ffa3ff" fill-opacity="0.2" /><circle cx="305" cy="45" r="5" fill="#ff4bff" fill-opacity="0" /><circle cx="355" cy="5" r="5" fill="#ff2fff" fill-opacity="0" /><circle cx="365" cy="15" r="5" fill="#ffd3ff" fill-opacity="0" /><circle cx="375" cy="15" r="5" fill="#ff29ff" fill-opacity="0.3" /><circle cx="385" cy="15" r="5" fill="#fff9ff" fill-opacity="0.4" /><circle cx="395" cy="15" r="5" fill="#ff8bff" fill-opacity="0.1" /><circle cx="365" cy="25" r="5" fill="#ff0eff" fill-opacity="0.3" /><circle cx="375" cy="25" r="5" fill="#ff20ff" fill-opacity="0.1" /><circle cx="385" cy="25" r="5" fill="#ff7aff" fill-opacity="0" /><circle cx="395" cy="25" r="5" fill="#ff49ff" fill-opacity="0.2" /><circle cx="365" cy="35" r="5" fill="#ff5eff" fill-opacity="0" /><circle cx="375" cy="35" r="5" fill="#ff13ff" fill-opacity="0.1" /><circle cx="385" cy="35" r="5" fill="#ff88ff" fill-opacity="0.5" /><circle cx="395" cy="35" r="5" fill="#ff90ff" fill-opacity="0.1" /><circle cx="355" cy="45" r="5" fill="#ff78ff" fill-opacity="0" /><circle cx="405" cy="5" r="5" fill="#ffdeff" fill-opacity="0.3" /><circle cx="415" cy="15" r="5" fill="#ff9fff" fill-opacity="0" /><circle cx="425" cy="15" r="5" fill="#ffe9ff" fill-opacity="0.4" /><circle cx="435" cy="15" r="5" fill="#ffeaff" fill-opacity="0.3" /><circle cx="445" cy="15" r="5" fill="#ffadff" fill-opacity="0.2" /><circle cx="415" cy="25" r="5" fill="#ff2cff" fill-opacity="0.2" /><circle cx="425" cy="25" r="5" fill="#fffaff" fill-opacity="0.1" /><circle cx="435" cy="25" r="5" fill="#ff6cff" fill-opacity="0.5" /><circle cx="445" cy="25" r="5" fill="#ff47ff" fill-opacity="0.3" /><circle cx="415" cy="35" r="5" fill="#ff60ff" fill-opacity="0" /><circle cx="425" cy="35" r="5" fill="#ff4dff" fill-opacity="0.1" /><circle cx="435" cy="35" r="5" fill="#ff4bff" fill-opacity="0" /><circle cx="445" cy="35" r="5" fill="#ff1dff" fill-opacity="0.2" /><circle cx="405" cy="45" r="5" fill="#ffb8ff" fill-opacity="0.1" /><circle cx="205" cy="55" r="5" fill="#ffe5ff" fill-opacity="0.1" /><circle cx="215" cy="65" r="5" fill="#ff2cff" fill-opacity="0.2" /><circle cx="225" cy="65" r="5" fill="#ffdfff" fill-opacity="0.1" /><circle cx="235" cy="65" r="5" fill="#ffa1ff" fill-opacity="0.1" /><circle cx="245" cy="65" r="5" fill="#ff08ff" fill-opacity="0.3" /><circle cx="215" cy="75" r="5" fill="#ffbbff" fill-opacity="0.3" /><circle cx="225" cy="75" r="5" fill="#fffcff" fill-opacity="0.4" /><circle cx="235" cy="75" r="5" fill="#ffe9ff" fill-opacity="0.5" /><circle cx="245" cy="75" r="5" fill="#ffb6ff" fill-opacity="0.3" /><circle cx="215" cy="85" r="5" fill="#ff37ff" fill-opacity="0.5" /><circle cx="225" cy="85" r="5" fill="#ff41ff" fill-opacity="0.1" /><circle cx="235" cy="85" r="5" fill="#ffe8ff" fill-opacity="0.4" /><circle cx="245" cy="85" r="5" fill="#ffbaff" fill-opacity="0.5" /><circle cx="205" cy="95" r="5" fill="#ff73ff" fill-opacity="0.4" /><circle cx="275" cy="75" r="25" fill="#ff77ff" fill-opacity="0.3" /><circle cx="325" cy="75" r="25" fill="#ffa7ff" fill-opacity="0" /><circle cx="375" cy="75" r="25" fill="#ffe0ff" fill-opacity="0.3" /><circle cx="425" cy="75" r="25" fill="#ff54ff" fill-opacity="0.5" /><circle cx="205" cy="105" r="5" fill="#ff9aff" fill-opacity="0.2" /><circle cx="215" cy="115" r="5" fill="#ffd7ff" fill-opacity="0.2" /><circle cx="225" cy="115" r="5" fill="#ff6aff" fill-opacity="0" /><circle cx="235" cy="115" r="5" fill="#ff0bff" fill-opacity="0.3" /><circle cx="245" cy="115" r="5" fill="#ff78ff" fill-opacity="0.4" /><circle cx="215" cy="125" r="5" fill="#ff3cff" fill-opacity="0.1" /><circle cx="225" cy="125" r="5" fill="#fffbff" fill-opacity="0.2" /><circle cx="235" cy="125" r="5" fill="#ffa1ff" fill-opacity="0.2" /><circle cx="245" cy="125" r="5" fill="#ff52ff" fill-opacity="0.1" /><circle cx="215" cy="135" r="5" fill="#ff53ff" fill-opacity="0.5" /><circle cx="225" cy="135" r="5" fill="#ff7cff" fill-opacity="0.4" /><circle cx="235" cy="135" r="5" fill="#ff87ff" fill-opacity="0" /><circle cx="245" cy="135" r="5" fill="#ff7bff" fill-opacity="0" /><circle cx="205" cy="145" r="5" fill="#ff1fff" fill-opacity="0.5" /><circle cx="275" cy="125" r="25" fill="#ff4eff" fill-opacity="0.3" /><circle cx="325" cy="125" r="25" fill="#ff38ff" fill-opacity="0.1" /><circle cx="375" cy="125" r="25" fill="#ff14ff" fill-opacity="0" /><circle cx="425" cy="125" r="25" fill="#ffa5ff" fill-opacity="0" /><circle cx="205" cy="155" r="5" fill="#ff78ff" fill-opacity="0.5" /><circle cx="215" cy="165" r="5" fill="#ff41ff" fill-opacity="0.1" /><circle cx="225" cy="165" r="5" fill="#ff83ff" fill-opacity="0.1" /><circle cx="235" cy="165" r="5" fill="#ffe2ff" fill-opacity="0.1" /><circle cx="245" cy="165" r="5" fill="#fffdff" fill-opacity="0" /><circle cx="215" cy="175" r="5" fill="#ffb3ff" fill-opacity="0.3" /><circle cx="225" cy="175" r="5" fill="#ff8fff" fill-opacity="0.5" /><circle cx="235" cy="175" r="5" fill="#ffabff" fill-opacity="0.3" /><circle cx="245" cy="175" r="5" fill="#ff76ff" fill-opacity="0.4" /><circle cx="215" cy="185" r="5" fill="#ff90ff" fill-opacity="0.4" /><circle cx="225" cy="185" r="5" fill="#ff05ff" fill-opacity="0" /><circle cx="235" cy="185" r="5" fill="#ff47ff" fill-opacity="0.4" /><circle cx="245" cy="185" r="5" fill="#ff74ff" fill-opacity="0.4" /><circle cx="205" cy="195" r="5" fill="#ffcdff" fill-opacity="0.1" /><circle cx="275" cy="175" r="25" fill="#ffb5ff" fill-opacity="0.5" /><circle cx="325" cy="175" r="25" fill="#ff2bff" fill-opacity="0.1" /><circle cx="375" cy="175" r="25" fill="#ffb1ff" fill-opacity="0.2" /><circle cx="425" cy="175" r="25" fill="#ff5cff" fill-opacity="0.5" /><circle cx="225" cy="225" r="25" fill="#ff2fff" fill-opacity="0.3" /><circle cx="255" cy="205" r="5" fill="#ff3bff" fill-opacity="0.1" /><circle cx="265" cy="215" r="5" fill="#ff16ff" fill-opacity="0.4" /><circle cx="275" cy="215" r="5" fill="#ff42ff" fill-opacity="0.3" /><circle cx="285" cy="215" r="5" fill="#ff30ff" fill-opacity="0.5" /><circle cx="295" cy="215" r="5" fill="#ffdcff" fill-opacity="0.2" /><circle cx="265" cy="225" r="5" fill="#ff42ff" fill-opacity="0" /><circle cx="275" cy="225" r="5" fill="#ff05ff" fill-opacity="0.3" /><circle cx="285" cy="225" r="5" fill="#ff82ff" fill-opacity="0.3" /><circle cx="295" cy="225" r="5" fill="#ff12ff" fill-opacity="0.2" /><circle cx="265" cy="235" r="5" fill="#ff3cff" fill-opacity="0.4" /><circle cx="275" cy="235" r="5" fill="#fffbff" fill-opacity="0.4" /><circle cx="285" cy="235" r="5" fill="#ff67ff" fill-opacity="0.2" /><circle cx="295" cy="235" r="5" fill="#ffafff" fill-opacity="0.5" /><circle cx="255" cy="245" r="5" fill="#ffddff" fill-opacity="0.3" /><circle cx="305" cy="205" r="5" fill="#fff6ff" fill-opacity="0.4" /><circle cx="315" cy="215" r="5" fill="#ff1fff" fill-opacity="0.1" /><circle cx="325" cy="215" r="5" fill="#ff97ff" fill-opacity="0.1" /><circle cx="335" cy="215" r="5" fill="#ff51ff" fill-opacity="0" /><circle cx="345" cy="215" r="5" fill="#ffd7ff" fill-opacity="0.1" /><circle cx="315" cy="225" r="5" fill="#ff02ff" fill-opacity="0.5" /><circle cx="325" cy="225" r="5" fill="#ffb1ff" fill-opacity="0" /><circle cx="335" cy="225" r="5" fill="#ff4aff" fill-opacity="0.4" /><circle cx="345" cy="225" r="5" fill="#ffdeff" fill-opacity="0.1" /><circle cx="315" cy="235" r="5" fill="#ffd7ff" fill-opacity="0.1" /><circle cx="325" cy="235" r="5" fill="#ff17ff" fill-opacity="0.3" /><circle cx="335" cy="235" r="5" fill="#ff0fff" fill-opacity="0.1" /><circle cx="345" cy="235" r="5" fill="#ff0dff" fill-opacity="0.5" /><circle cx="305" cy="245" r="5" fill="#fff0ff" fill-opacity="0.3" /><circle cx="355" cy="205" r="5" fill="#ff85ff" fill-opacity="0.5" /><circle cx="365" cy="215" r="5" fill="#fffdff" fill-opacity="0.3" /><circle cx="375" cy="215" r="5" fill="#ff14ff" fill-opacity="0.5" /><circle cx="385" cy="215" r="5" fill="#ffe5ff" fill-opacity="0.3" /><circle cx="395" cy="215" r="5" fill="#ffacff" fill-opacity="0.1" /><circle cx="365" cy="225" r="5" fill="#ff60ff" fill-opacity="0" /><circle cx="375" cy="225" r="5" fill="#ff8dff" fill-opacity="0.2" /><circle cx="385" cy="225" r="5" fill="#ff5dff" fill-opacity="0" /><circle cx="395" cy="225" r="5" fill="#ff7dff" fill-opacity="0.3" /><circle cx="365" cy="235" r="5" fill="#fff7ff" fill-opacity="0" /><circle cx="375" cy="235" r="5" fill="#ffe7ff" fill-opacity="0.2" /><circle cx="385" cy="235" r="5" fill="#ff5bff" fill-opacity="0.4" /><circle cx="395" cy="235" r="5" fill="#ffb1ff" fill-opacity="0.1" /><circle cx="355" cy="245" r="5" fill="#ff13ff" fill-opacity="0.5" /><circle cx="405" cy="205" r="5" fill="#ff7cff" fill-opacity="0" /><circle cx="415" cy="215" r="5" fill="#ff58ff" fill-opacity="0" /><circle cx="425" cy="215" r="5" fill="#ffb9ff" fill-opacity="0" /><circle cx="435" cy="215" r="5" fill="#ff25ff" fill-opacity="0" /><circle cx="445" cy="215" r="5" fill="#ffa8ff" fill-opacity="0" /><circle cx="415" cy="225" r="5" fill="#ff12ff" fill-opacity="0" /><circle cx="425" cy="225" r="5" fill="#ff39ff" fill-opacity="0.2" /><circle cx="435" cy="225" r="5" fill="#ffb8ff" fill-opacity="0" /><circle cx="445" cy="225" r="5" fill="#ff50ff" fill-opacity="0.3" /><circle cx="415" cy="235" r="5" fill="#ff09ff" fill-opacity="0" /><circle cx="425" cy="235" r="5" fill="#ffa6ff" fill-opacity="0.2" /><circle cx="435" cy="235" r="5" fill="#ff8bff" fill-opacity="0.2" /><circle cx="445" cy="235" r="5" fill="#ffd7ff" fill-opacity="0.1" /><circle cx="405" cy="245" r="5" fill="#ff3aff" fill-opacity="0.2" /><circle cx="225" cy="225" r="25" fill="#ffffd9" fill-opacity="0.1" /><circle cx="255" cy="205" r="5" fill="#ffff46" fill-opacity="0.1" /><circle cx="255" cy="215" r="5" fill="#ffff74" fill-opacity="0.2" /><circle cx="265" cy="215" r="5" fill="#ffff07" fill-opacity="0.5" /><circle cx="275" cy="215" r="5" fill="#ffff44" fill-opacity="0.2" /><circle cx="285" cy="215" r="5" fill="#ffffb9" fill-opacity="0" /><circle cx="255" cy="225" r="5" fill="#ffffca" fill-opacity="0.2" /><circle cx="265" cy="225" r="5" fill="#ffff5b" fill-opacity="0.1" /><circle cx="275" cy="225" r="5" fill="#ffff95" fill-opacity="0.4" /><circle cx="285" cy="225" r="5" fill="#ffff95" fill-opacity="0.4" /><circle cx="265" cy="235" r="5" fill="#ffff60" fill-opacity="0.1" /><circle cx="275" cy="235" r="5" fill="#ffff07" fill-opacity="0.2" /><circle cx="285" cy="235" r="5" fill="#ffff81" fill-opacity="0.3" /><circle cx="255" cy="245" r="5" fill="#ffffc2" fill-opacity="0.2" /><circle cx="295" cy="245" r="5" fill="#ffffc1" fill-opacity="0.4" /><circle cx="305" cy="205" r="5" fill="#ffff61" fill-opacity="0.5" /><circle cx="305" cy="215" r="5" fill="#ffff39" fill-opacity="0.1" /><circle cx="315" cy="215" r="5" fill="#ffff2d" fill-opacity="0.2" /><circle cx="325" cy="215" r="5" fill="#ffffa3" fill-opacity="0.2" /><circle cx="335" cy="215" r="5" fill="#ffff88" fill-opacity="0" /><circle cx="305" cy="225" r="5" fill="#ffffea" fill-opacity="0.2" /><circle cx="315" cy="225" r="5" fill="#ffff3f" fill-opacity="0.2" /><circle cx="325" cy="225" r="5" fill="#ffff97" fill-opacity="0.2" /><circle cx="335" cy="225" r="5" fill="#ffffd4" fill-opacity="0.2" /><circle cx="315" cy="235" r="5" fill="#ffffea" fill-opacity="0.5" /><circle cx="325" cy="235" r="5" fill="#ffff7a" fill-opacity="0.4" /><circle cx="335" cy="235" r="5" fill="#ffffab" fill-opacity="0" /><circle cx="305" cy="245" r="5" fill="#ffff52" fill-opacity="0.2" /><circle cx="345" cy="245" r="5" fill="#ffffcc" fill-opacity="0" /><circle cx="355" cy="205" r="5" fill="#ffff8d" fill-opacity="0.4" /><circle cx="355" cy="215" r="5" fill="#ffffff" fill-opacity="0.5" /><circle cx="365" cy="215" r="5" fill="#ffff4d" fill-opacity="0.3" /><circle cx="375" cy="215" r="5" fill="#ffff3c" fill-opacity="0.4" /><circle cx="385" cy="215" r="5" fill="#ffffdf" fill-opacity="0.5" /><circle cx="355" cy="225" r="5" fill="#ffffae" fill-opacity="0.4" /><circle cx="365" cy="225" r="5" fill="#ffffb2" fill-opacity="0.3" /><circle cx="375" cy="225" r="5" fill="#ffff4c" fill-opacity="0.3" /><circle cx="385" cy="225" r="5" fill="#ffff4a" fill-opacity="0.2" /><circle cx="365" cy="235" r="5" fill="#ffff73" fill-opacity="0.5" /><circle cx="375" cy="235" r="5" fill="#ffffb2" fill-opacity="0.2" /><circle cx="385" cy="235" r="5" fill="#ffff4e" fill-opacity="0" /><circle cx="355" cy="245" r="5" fill="#ffffe9" fill-opacity="0.2" /><circle cx="395" cy="245" r="5" fill="#ffffbf" fill-opacity="0" /><circle cx="405" cy="205" r="5" fill="#ffffda" fill-opacity="0.3" /><circle cx="405" cy="215" r="5" fill="#ffff2c" fill-opacity="0.5" /><circle cx="415" cy="215" r="5" fill="#ffff9b" fill-opacity="0.1" /><circle cx="425" cy="215" r="5" fill="#ffffe5" fill-opacity="0.1" /><circle cx="435" cy="215" r="5" fill="#ffff17" fill-opacity="0" /><circle cx="405" cy="225" r="5" fill="#ffffa4" fill-opacity="0.4" /><circle cx="415" cy="225" r="5" fill="#ffff5e" fill-opacity="0.5" /><circle cx="425" cy="225" r="5" fill="#ffffec" fill-opacity="0" /><circle cx="435" cy="225" r="5" fill="#ffff28" fill-opacity="0.4" /><circle cx="415" cy="235" r="5" fill="#ffffb6" fill-opacity="0.1" /><circle cx="425" cy="235" r="5" fill="#ffff9a" fill-opacity="0.5" /><circle cx="435" cy="235" r="5" fill="#ffffae" fill-opacity="0.2" /><circle cx="405" cy="245" r="5" fill="#ffffc7" fill-opacity="0.1" /><circle cx="445" cy="245" r="5" fill="#fffff2" fill-opacity="0" /><circle cx="225" cy="275" r="25" fill="#ffffdb" fill-opacity="0.3" /><circle cx="275" cy="275" r="25" fill="#ffffb8" fill-opacity="0.2" /><circle cx="325" cy="275" r="25" fill="#ffff05" fill-opacity="0.5" /><circle cx="375" cy="275" r="25" fill="#ffffac" fill-opacity="0.5" /><circle cx="405" cy="255" r="5" fill="#ffff37" fill-opacity="0.5" /><circle cx="405" cy="265" r="5" fill="#ffffa0" fill-opacity="0.4" /><circle cx="415" cy="265" r="5" fill="#ffffee" fill-opacity="0.3" /><circle cx="425" cy="265" r="5" fill="#ffff64" fill-opacity="0.5" /><circle cx="435" cy="265" r="5" fill="#ffffd8" fill-opacity="0.5" /><circle cx="405" cy="275" r="5" fill="#ffff25" fill-opacity="0.3" /><circle cx="415" cy="275" r="5" fill="#ffff2e" fill-opacity="0" /><circle cx="425" cy="275" r="5" fill="#ffff74" fill-opacity="0.2" /><circle cx="435" cy="275" r="5" fill="#ffffb2" fill-opacity="0.3" /><circle cx="415" cy="285" r="5" fill="#ffff63" fill-opacity="0.4" /><circle cx="425" cy="285" r="5" fill="#ffff21" fill-opacity="0.4" /><circle cx="435" cy="285" r="5" fill="#ffffde" fill-opacity="0" /><circle cx="405" cy="295" r="5" fill="#ffffc1" fill-opacity="0.2" /><circle cx="445" cy="295" r="5" fill="#ffff10" fill-opacity="0.1" /><circle cx="225" cy="325" r="25" fill="#fffff7" fill-opacity="0.4" /><circle cx="275" cy="325" r="25" fill="#ffff1b" fill-opacity="0" /><circle cx="325" cy="325" r="25" fill="#ffff80" fill-opacity="0.2" /><circle cx="375" cy="325" r="25" fill="#ffff8a" fill-opacity="0.1" /><circle cx="405" cy="305" r="5" fill="#ffffcc" fill-opacity="0.5" /><circle cx="405" cy="315" r="5" fill="#ffff64" fill-opacity="0.1" /><circle cx="415" cy="315" r="5" fill="#ffff89" fill-opacity="0.4" /><circle cx="425" cy="315" r="5" fill="#ffff55" fill-opacity="0.3" /><circle cx="435" cy="315" r="5" fill="#ffff87" fill-opacity="0.3" /><circle cx="405" cy="325" r="5" fill="#ffffa1" fill-opacity="0.3" /><circle cx="415" cy="325" r="5" fill="#ffff2a" fill-opacity="0.2" /><circle cx="425" cy="325" r="5" fill="#ffff85" fill-opacity="0.4" /><circle cx="435" cy="325" r="5" fill="#ffffdd" fill-opacity="0.1" /><circle cx="415" cy="335" r="5" fill="#ffffbb" fill-opacity="0.1" /><circle cx="425" cy="335" r="5" fill="#ffffaf" fill-opacity="0.3" /><circle cx="435" cy="335" r="5" fill="#ffff45" fill-opacity="0.2" /><circle cx="405" cy="345" r="5" fill="#ffff65" fill-opacity="0.5" /><circle cx="445" cy="345" r="5" fill="#ffff35" fill-opacity="0" /><circle cx="205" cy="355" r="5" fill="#ffff7d" fill-opacity="0.5" /><circle cx="205" cy="365" r="5" fill="#ffff4d" fill-opacity="0.3" /><circle cx="215" cy="365" r="5" fill="#ffff65" fill-opacity="0.1" /><circle cx="225" cy="365" r="5" fill="#ffff74" fill-opacity="0.5" /><circle cx="235" cy="365" r="5" fill="#ffffd3" fill-opacity="0.4" /><circle cx="205" cy="375" r="5" fill="#ffff87" fill-opacity="0" /><circle cx="215" cy="375" r="5" fill="#ffffa3" fill-opacity="0.1" /><circle cx="225" cy="375" r="5" fill="#ffff84" fill-opacity="0.4" /><circle cx="235" cy="375" r="5" fill="#ffff94" fill-opacity="0.5" /><circle cx="215" cy="385" r="5" fill="#ffff9f" fill-opacity="0.4" /><circle cx="225" cy="385" r="5" fill="#ffff0f" fill-opacity="0.1" /><circle cx="235" cy="385" r="5" fill="#ffffd1" fill-opacity="0.2" /><circle cx="205" cy="395" r="5" fill="#ffff13" fill-opacity="0.5" /><circle cx="245" cy="395" r="5" fill="#ffff93" fill-opacity="0" /><circle cx="275" cy="375" r="25" fill="#ffff5c" fill-opacity="0.2" /><circle cx="325" cy="375" r="25" fill="#ffff04" fill-opacity="0.2" /><circle cx="375" cy="375" r="25" fill="#ffffc4" fill-opacity="0.4" /><circle cx="405" cy="355" r="5" fill="#ffffcb" fill-opacity="0.2" /><circle cx="405" cy="365" r="5" fill="#ffff09" fill-opacity="0.1" /><circle cx="415" cy="365" r="5" fill="#ffff76" fill-opacity="0.1" /><circle cx="425" cy="365" r="5" fill="#ffff64" fill-opacity="0.1" /><circle cx="435" cy="365" r="5" fill="#ffffe6" fill-opacity="0" /><circle cx="405" cy="375" r="5" fill="#ffff6f" fill-opacity="0.5" /><circle cx="415" cy="375" r="5" fill="#ffff62" fill-opacity="0.1" /><circle cx="425" cy="375" r="5" fill="#ffffb4" fill-opacity="0" /><circle cx="435" cy="375" r="5" fill="#ffff40" fill-opacity="0.5" /><circle cx="415" cy="385" r="5" fill="#ffffdd" fill-opacity="0.5" /><circle cx="425" cy="385" r="5" fill="#ffff5a" fill-opacity="0.3" /><circle cx="435" cy="385" r="5" fill="#ffffa3" fill-opacity="0" /><circle cx="405" cy="395" r="5" fill="#ffff55" fill-opacity="0" /><circle cx="445" cy="395" r="5" fill="#ffff24" fill-opacity="0.4" /><circle cx="225" cy="425" r="25" fill="#ffff8b" fill-opacity="0.2" /><circle cx="255" cy="405" r="5" fill="#ffff70" fill-opacity="0" /><circle cx="255" cy="415" r="5" fill="#fffffd" fill-opacity="0.5" /><circle cx="265" cy="415" r="5" fill="#ffffb0" fill-opacity="0.4" /><circle cx="275" cy="415" r="5" fill="#ffff33" fill-opacity="0.3" /><circle cx="285" cy="415" r="5" fill="#fffffa" fill-opacity="0.3" /><circle cx="255" cy="425" r="5" fill="#ffff1a" fill-opacity="0" /><circle cx="265" cy="425" r="5" fill="#ffff3e" fill-opacity="0.5" /><circle cx="275" cy="425" r="5" fill="#ffff3f" fill-opacity="0.1" /><circle cx="285" cy="425" r="5" fill="#ffff71" fill-opacity="0.5" /><circle cx="265" cy="435" r="5" fill="#ffffe9" fill-opacity="0.2" /><circle cx="275" cy="435" r="5" fill="#ffffb5" fill-opacity="0.1" /><circle cx="285" cy="435" r="5" fill="#ffffdb" fill-opacity="0" /><circle cx="255" cy="445" r="5" fill="#ffff6e" fill-opacity="0.1" /><circle cx="295" cy="445" r="5" fill="#fffff0" fill-opacity="0.2" /><circle cx="305" cy="405" r="5" fill="#ffff48" fill-opacity="0.1" /><circle cx="305" cy="415" r="5" fill="#ffff8c" fill-opacity="0.2" /><circle cx="315" cy="415" r="5" fill="#ffff9b" fill-opacity="0.2" /><circle cx="325" cy="415" r="5" fill="#ffff72" fill-opacity="0.4" /><circle cx="335" cy="415" r="5" fill="#ffffad" fill-opacity="0.1" /><circle cx="305" cy="425" r="5" fill="#ffffca" fill-opacity="0.3" /><circle cx="315" cy="425" r="5" fill="#ffff78" fill-opacity="0.5" /><circle cx="325" cy="425" r="5" fill="#ffff41" fill-opacity="0.5" /><circle cx="335" cy="425" r="5" fill="#ffff52" fill-opacity="0.5" /><circle cx="315" cy="435" r="5" fill="#ffffa4" fill-opacity="0.4" /><circle cx="325" cy="435" r="5" fill="#ffff32" fill-opacity="0.4" /><circle cx="335" cy="435" r="5" fill="#ffff7c" fill-opacity="0" /><circle cx="305" cy="445" r="5" fill="#ffff39" fill-opacity="0.1" /><circle cx="345" cy="445" r="5" fill="#ffffd4" fill-opacity="0.1" /><circle cx="355" cy="405" r="5" fill="#ffff5a" fill-opacity="0.3" /><circle cx="355" cy="415" r="5" fill="#ffffd6" fill-opacity="0.2" /><circle cx="365" cy="415" r="5" fill="#ffff4d" fill-opacity="0.4" /><circle cx="375" cy="415" r="5" fill="#ffff71" fill-opacity="0.5" /><circle cx="385" cy="415" r="5" fill="#ffff9a" fill-opacity="0" /><circle cx="355" cy="425" r="5" fill="#ffff62" fill-opacity="0.5" /><circle cx="365" cy="425" r="5" fill="#ffff07" fill-opacity="0.3" /><circle cx="375" cy="425" r="5" fill="#ffff08" fill-opacity="0" /><circle cx="385" cy="425" r="5" fill="#ffff4a" fill-opacity="0.4" /><circle cx="365" cy="435" r="5" fill="#ffff3d" fill-opacity="0.5" /><circle cx="375" cy="435" r="5" fill="#ffff3c" fill-opacity="0.4" /><circle cx="385" cy="435" r="5" fill="#ffff95" fill-opacity="0.4" /><circle cx="355" cy="445" r="5" fill="#ffff32" fill-opacity="0.3" /><circle cx="395" cy="445" r="5" fill="#ffff23" fill-opacity="0.4" /><circle cx="425" cy="425" r="25" fill="#fffffc" fill-opacity="0" /></svg>