<?xml version="1.0" encoding="utf-8"?><svg width="450" height="450" xmlns="http://www.w3.org/2000/svg" xmlns:xlink="http://www.w3.org/1999/xlink"><circle cx="25" cy="25" r="25" fill="#8affff" fill-opacity="0.4" /><circle cx="55" cy="5" r="5" fill="#7effff" fill-opacity="0.2" /><circle cx="95" cy="5" r="5" fill="#fdffff" fill-opacity="0.1" /><circle cx="65" cy="15" r="5" fill="#60ffff" fill-opacity="0.4" /><circle cx="75" cy="15" r="5" fill="#3dffff" fill-opacity="0.1" /><circle cx="85" cy="15" r="5" fill="#f2ffff" fill-opacity="0.2" /><circle cx="65" cy="35" r="5" fill="#2effff" fill-opacity="0.3" /><circle cx="75" cy="35" r="5" fill="#0bffff" fill-opacity="0.4" /><circle cx="85" cy="35" r="5" fill="#41ffff" fill-opacity="0" /><circle cx="65" cy="45" r="5" fill="#40ffff" fill-opacity="0.4" /><circle cx="75" cy="45" r="5" fill="#2dffff" fill-opacity="0.4" /><circle cx="85" cy="45" r="5" fill="#dfffff" fill-opacity="0.3" /><circle cx="105" cy="5" r="5" fill="#36ffff" fill-opacity="0.5" /><circle cx="145" cy="5" r="5" fill="#60ffff" fill-opacity="0.2" /><circle cx="115" cy="15" r="5" fill="#aeffff" fill-opacity="0.5" /><circle cx="125" cy="15" r="5" fill="#f5ffff" fill-opacity="0.5" /><circle cx="135" cy="15" r="5" fill="#ecffff" fill-opacity="0.2" /><circle cx="115" cy="35" r="5" fill="#37ffff" fill-opacity="0.1" /><circle cx="125" cy="35" r="5" fill="#8dffff" fill-opacity="0.5" /><circle cx="135" cy="35" r="5" fill="#d6ffff" fill-opacity="0.2" /><circle cx="115" cy="45" r="5" fill="#b4ffff" fill-opacity="0.1" /><circle cx="125" cy="45" r="5" fill="#a1ffff" fill-opacity="0" /><circle cx="135" cy="45" r="5" fill="#ecffff" fill-opacity="0.1" /><circle cx="155" cy="5" r="5" fill="#12ffff" fill-opacity="0.2" /><circle cx="195" cy="5" r="5" fill="#27ffff" fill-opacity="0.3" /><circle cx="165" cy="15" r="5" fill="#86ffff" fill-opacity="0.2" /><circle cx="175" cy="15" r="5" fill="#efffff" fill-opacity="0.1" /><circle cx="185" cy="15" r="5" fill="#23ffff" fill-opacity="0.5" /><circle cx="165" cy="35" r="5" fill="#10ffff" fill-opacity="0.2" /><circle cx="175" cy="35" r="5" fill="#25ffff" fill-opacity="0.3" /><circle cx="185" cy="35" r="5" fill="#beffff" fill-opacity="0.3" /><circle cx="165" cy="45" r="5" fill="#92ffff" fill-opacity="0.5" /><circle cx="175" cy="45" r="5" fill="#dcffff" fill-opacity="0" /><circle cx="185" cy="45" r="5" fill="#9fffff" fill-opacity="0.5" /><circle cx="225" cy="25" r="25" fill="#15ffff" fill-opacity="0.4" /><circle cx="5" cy="55" r="5" fill="#b2ffff" fill-opacity="0.4" /><circle cx="45" cy="55" r="5" fill="#edffff" fill-opacity="0" /><circle cx="15" cy="65" r="5" fill="#45ffff" fill-opacity="0.4" /><circle cx="25" cy="65" r="5" fill="#4effff" fill-opacity="0.5" /><circle cx="35" cy="65" r="5" fill="#b3ffff" fill-opacity="0.2" /><circle cx="15" cy="85" r="5" fill="#81ffff" fill-opacity="0.2" /><circle cx="25" cy="85" r="5" fill="#dcffff" fill-opacity="0.2" /><circle cx="35" cy="85" r="5" fill="#ebffff" fill-opacity="0.3" /><circle cx="15" cy="95" r="5" fill="#0effff" fill-opacity="0" /><circle cx="25" cy="95" r="5" fill="#d0ffff" fill-opacity="0" /><circle cx="35" cy="95" r="5" fill="#a0ffff" fill-opacity="0.4" /><circle cx="75" cy="75" r="25" fill="#c6ffff" fill-opacity="0.4" /><circle cx="125" cy="75" r="25" fill="#ebffff" fill-opacity="0" /><circle cx="175" cy="75" r="25" fill="#6bffff" fill-opacity="0.1" /><circle cx="205" cy="55" r="5" fill="#ccffff" fill-opacity="0" /><circle cx="245" cy="55" r="5" fill="#44ffff" fill-opacity="0.5" /><circle cx="215" cy="65" r="5" fill="#3cffff" fill-opacity="0.4" /><circle cx="225" cy="65" r="5" fill="#9effff" fill-opacity="0.4" /><circle cx="235" cy="65" r="5" fill="#f8ffff" fill-opacity="0" /><circle cx="215" cy="85" r="5" fill="#5affff" fill-opacity="0.1" /><circle cx="225" cy="85" r="5" fill="#42ffff" fill-opacity="0.3" /><circle cx="235" cy="85" r="5" fill="#e4ffff" fill-opacity="0.2" /><circle cx="215" cy="95" r="5" fill="#0fffff" fill-opacity="0.2" /><circle cx="225" cy="95" r="5" fill="#c2ffff" fill-opacity="0.3" /><circle cx="235" cy="95" r="5" fill="#adffff" fill-opacity="0.3" /><circle cx="5" cy="105" r="5" fill="#50ffff" fill-opacity="0.4" /><circle cx="45" cy="105" r="5" fill="#7fffff" fill-opacity="0.1" /><circle cx="15" cy="115" r="5" fill="#8dffff" fill-opacity="0" /><circle cx="25" cy="115" r="5" fill="#f0ffff" fill-opacity="0" /><circle cx="35" cy="115" r="5" fill="#4bffff" fill-opacity="0.2" /><circle cx="15" cy="135" r="5" fill="#b0ffff" fill-opacity="0.1" /><circle cx="25" cy="135" r="5" fill="#39ffff" fill-opacity="0.5" /><circle cx="35" cy="135" r="5" fill="#44ffff" fill-opacity="0.2" /><circle cx="15" cy="145" r="5" fill="#a0ffff" fill-opacity="0.2" /><circle cx="25" cy="145" r="5" fill="#57ffff" fill-opacity="0.5" /><circle cx="35" cy="145" r="5" fill="#70ffff" fill-opacity="0.1" /><circle cx="55" cy="105" r="5" fill="#99ffff" fill-opacity="0.3" /><circle cx="95" cy="105" r="5" fill="#fdffff" fill-opacity="0.2" /><circle cx="65" cy="115" r="5" fill="#ebffff" fill-opacity="0.5" /><circle cx="75" cy="115" r="5" fill="#1affff" fill-opacity="0.2" /><circle cx="85" cy="115" r="5" fill="#06ffff" fill-opacity="0" /><circle cx="65" cy="135" r="5" fill="#80ffff" fill-opacity="0.3" /><circle cx="75" cy="135" r="5" fill="#1dffff" fill-opacity="0.4" /><circle cx="85" cy="135" r="5" fill="#f1ffff" fill-opacity="0.5" /><circle cx="65" cy="145" r="5" fill="#0effff" fill-opacity="0.5" /><circle cx="75" cy="145" r="5" fill="#a9ffff" fill-opacity="0.2" /><circle cx="85" cy="145" r="5" fill="#3affff" fill-opacity="0.2" /><circle cx="105" cy="105" r="5" fill="#5effff" fill-opacity="0" /><circle cx="145" cy="105" r="5" fill="#0cffff" fill-opacity="0.5" /><circle cx="115" cy="115" r="5" fill="#a7ffff" fill-opacity="0.5" /><circle cx="125" cy="115" r="5" fill="#4fffff" fill-opacity="0" /><circle cx="135" cy="115" r="5" fill="#49ffff" fill-opacity="0.2" /><circle cx="115" cy="135" r="5" fill="#36ffff" fill-opacity="0.2" /><circle cx="125" cy="135" r="5" fill="#00ffff" fill-opacity="0.5" /><circle cx="135" cy="135" r="5" fill="#8affff" fill-opacity="0.5" /><circle cx="115" cy="145" r="5" fill="#0affff" fill-opacity="0.4" /><circle cx="125" cy="145" r="5" fill="#23ffff" fill-opacity="0.2" /><circle cx="135" cy="145" r="5" fill="#ecffff" fill-opacity="0" /><circle cx="155" cy="105" r="5" fill="#bbffff" fill-opacity="0.5" /><circle cx="195" cy="105" r="5" fill="#4dffff" fill-opacity="0.4" /><circle cx="165" cy="115" r="5" fill="#18ffff" fill-opacity="0" /><circle cx="175" cy="115" r="5" fill="#4affff" fill-opacity="0.1" /><circle cx="185" cy="115" r="5" fill="#21ffff" fill-opacity="0.3" /><circle cx="165" cy="135" r="5" fill="#12ffff" fill-opacity="0.4" /><circle cx="175" cy="135" r="5" fill="#15ffff" fill-opacity="0" /><circle cx="185" cy="135" r="5" fill="#f1ffff" fill-opacity="0.2" /><circle cx="165" cy="145" r="5" fill="#c5ffff" fill-opacity="0.3" /><circle cx="175" cy="145" r="5" fill="#feffff" fill-opacity="0.2" /><circle cx="185" cy="145" r="5" fill="#77ffff" fill-opacity="0.4" /><circle cx="205" cy="105" r="5" fill="#1dffff" fill-opacity="0" /><circle cx="245" cy="105" r="5" fill="#b6ffff" fill-opacity="0" /><circle cx="215" cy="115" r="5" fill="#13ffff" fill-opacity="0.2" /><circle cx="225" cy="115" r="5" fill="#44ffff" fill-opacity="0.1" /><circle cx="235" cy="115" r="5" fill="#acffff" fill-opacity="0.2" /><circle cx="215" cy="135" r="5" fill="#52ffff" fill-opacity="0.4" /><circle cx="225" cy="135" r="5" fill="#0dffff" fill-opacity="0.3" /><circle cx="235" cy="135" r="5" fill="#eeffff" fill-opacity="0.1" /><circle cx="215" cy="145" r="5" fill="#ebffff" fill-opacity="0.2" /><circle cx="225" cy="145" r="5" fill="#9bffff" fill-opacity="0.4" /><circle cx="235" cy="145" r="5" fill="#c2ffff" fill-opacity="0.3" /><circle cx="5" cy="155" r="5" fill="#bdffff" fill-opacity="0.4" /><circle cx="45" cy="155" r="5" fill="#a5ffff" fill-opacity="0.3" /><circle cx="15" cy="165" r="5" fill="#12ffff" fill-opacity="0.2" /><circle cx="25" cy="165" r="5" fill="#98ffff" fill-opacity="0.5" /><circle cx="35" cy="165" r="5" fill="#97ffff" fill-opacity="0.4" /><circle cx="15" cy="185" r="5" fill="#beffff" fill-opacity="0.2" /><circle cx="25" cy="185" r="5" fill="#15ffff" fill-opacity="0.5" /><circle cx="35" cy="185" r="5" fill="#5effff" fill-opacity="0.5" /><circle cx="15" cy="195" r="5" fill="#feffff" fill-opacity="0.2" /><circle cx="25" cy="195" r="5" fill="#67ffff" fill-opacity="0.5" /><circle cx="35" cy="195" r="5" fill="#e6ffff" fill-opacity="0.5" /><circle cx="75" cy="175" r="25" fill="#a1ffff" fill-opacity="0.4" /><circle cx="125" cy="175" r="25" fill="#8bffff" fill-opacity="0" /><circle cx="175" cy="175" r="25" fill="#f1ffff" fill-opacity="0.1" /><circle cx="205" cy="155" r="5" fill="#82ffff" fill-opacity="0.5" /><circle cx="245" cy="155" r="5" fill="#acffff" fill-opacity="0.2" /><circle cx="215" cy="165" r="5" fill="#54ffff" fill-opacity="0.5" /><circle cx="225" cy="165" r="5" fill="#ccffff" fill-opacity="0.2" /><circle cx="235" cy="165" r="5" fill="#beffff" fill-opacity="0.1" /><circle cx="215" cy="185" r="5" fill="#54ffff" fill-opacity="0.3" /><circle cx="225" cy="185" r="5" fill="#45ffff" fill-opacity="0.4" /><circle cx="235" cy="185" r="5" fill="#d2ffff" fill-opacity="0" /><circle cx="215" cy="195" r="5" fill="#ddffff" fill-opacity="0.4" /><circle cx="225" cy="195" r="5" fill="#94ffff" fill-opacity="0.3" /><circle cx="235" cy="195" r="5" fill="#4cffff" fill-opacity="0.5" /><circle cx="5" cy="205" r="5" fill="#5bffff" fill-opacity="0.4" /><circle cx="45" cy="205" r="5" fill="#ecffff" fill-opacity="0.2" /><circle cx="15" cy="215" r="5" fill="#84ffff" fill-opacity="0" /><circle cx="25" cy="215" r="5" fill="#89ffff" fill-opacity="0" /><circle cx="35" cy="215" r="5" fill="#c3ffff" fill-opacity="0.3" /><circle cx="15" cy="235" r="5" fill="#7dffff" fill-opacity="0.4" /><circle cx="25" cy="235" r="5" fill="#e6ffff" fill-opacity="0.5" /><circle cx="35" cy="235" r="5" fill="#9effff" fill-opacity="0.2" /><circle cx="15" cy="245" r="5" fill="#1dffff" fill-opacity="0.5" /><circle cx="25" cy="245" r="5" fill="#10ffff" fill-opacity="0.1" /><circle cx="35" cy="245" r="5" fill="#88ffff" fill-opacity="0.4" /><circle cx="75" cy="225" r="25" fill="#98ffff" fill-opacity="0.2" /><circle cx="125" cy="225" r="25" fill="#53ffff" fill-opacity="0.5" /><circle cx="175" cy="225" r="25" fill="#46ffff" fill-opacity="0.2" /><circle cx="205" cy="205" r="5" fill="#85ffff" fill-opacity="0.4" /><circle cx="245" cy="205" r="5" fill="#7affff" fill-opacity="0.5" /><circle cx="215" cy="215" r="5" fill="#d0ffff" fill-opacity="0.5" /><circle cx="225" cy="215" r="5" fill="#a7ffff" fill-opacity="0.5" /><circle cx="235" cy="215" r="5" fill="#12ffff" fill-opacity="0.5" /><circle cx="215" cy="235" r="5" fill="#93ffff" fill-opacity="0.4" /><circle cx="225" cy="235" r="5" fill="#6affff" fill-opacity="0.5" /><circle cx="235" cy="235" r="5" fill="#43ffff" fill-opacity="0" /><circle cx="215" cy="245" r="5" fill="#8dffff" fill-opacity="0.3" /><circle cx="225" cy="245" r="5" fill="#51ffff" fill-opacity="0.2" /><circle cx="235" cy="245" r="5" fill="#b7ffff" fill-opacity="0.5" /><circle cx="225" cy="25" r="25" fill="#ff79ff" fill-opacity="0.3" /><circle cx="255" cy="5" r="5" fill="#ff63ff" fill-opacity="0.2" /><circle cx="265" cy="15" r="5" fill="#ffb6ff" fill-opacity="0.3" /><circle cx="275" cy="15" r="5" fill="#ffb2ff" fill-opacity="0" /><circle cx="285" cy="15" r="5" fill="#ff44ff" fill-opacity="0.5" /><circle cx="295" cy="15" r="5" fill="#ffe6ff" fill-opacity="0" /><circle cx="265" cy="25" r="5" fill="#ffa5ff" fill-opacity="0.4" /><circle cx="275" cy="25" r="5" fill="#fff0ff" fill-opacity="0.1" /><circle cx="285" cy="25" r="5" fill="#ffbeff" fill-opacity="0.4" /><circle cx="295" cy="25" r="5" fill="#ff84ff" fill-opacity="0.1" /><circle cx="265" cy="35" r="5" fill="#ff7eff" fill-opacity="0.1" /><circle cx="275" cy="35" r="5" fill="#fffaff" fill-opacity="0.4" /><circle cx="285" cy="35" r="5" fill="#ffaaff" fill-opacity="0.5" /><circle cx="295" cy="35" r="5" fill="#ff02ff" fill-opacity="0.4" /><circle cx="255" cy="45" r="5" fill="#ff2aff" fill-opacity="0.5" /><circle cx="305" cy="5" r="5" fill="#ffdaff" fill-opacity="0.5" /><circle cx="315" cy="15" r="5" fill="#ff5aff" fill-opacity="0.1" /><circle cx="325" cy="15" r="5" fill="#ffb0ff" fill-opacity="0.4" /><circle cx="335" cy="15" r="5" fill="#ffccff" fill-opacity="0.1" /><circle cx="345" cy="15" r="5" fill="#ff79ff" fill-opacity="0.3" /><circle cx="315" cy="25" r="5" fill="#ff57ff" fill-opacity="0.1" /><circle cx="325" cy="25" r="5" fill="#ff2dff" fill-opacity="0.5" /><circle cx="335" cy="25" r="5" fill="#ff05ff" fill-opacity="0" /><circle cx="345" cy="25" r="5" fill="#ff90ff" fill-opacity="0.3" /><circle cx="315" cy="35" r="5" fill="#ff75ff" fill-opacity="0.1" /><circle cx="325" cy="35" r="5" fill="#ffc8ff" fill-opacity="0.1" /><circle cx="335" cy="35" r="5" fill="#ff3bff" fill-opacity="0.3" /><circle cx="345" cy="35" r="5" fill="#ff89ff" fill-opacity="0.4" /><circle cx="305" cy="45" r="5" fill="#fff8ff" fill-opacity="0.3" /><circle cx="355" cy="5" r="5" fill="#ff4eff" fill-opacity="0.3" /><circle cx="365" cy="15" r="5" fill="#ffa3ff" fill-opacity="0" /><circle cx="375" cy="15" r="5" fill="#fff9ff" fill-opacity="0" /><circle cx="385" cy="15" r="5" fill="#ffe7ff" fill-opacity="0.2" /><circle cx="395" cy="15" r="5" fill="#ff50ff" fill-opacity="0.5" /><circle cx="365" cy="25" r="5" fill="#ffddff" fill-opacity="0.4" /><circle cx="375" cy="25" r="5" fill="#ffd3ff" fill-opacity="0.4" /><circle cx="385" cy="25" r="5" fill="#ff51ff" fill-opacity="0.5" /><circle cx="395" cy="25" r="5" fill="#ff2dff" fill-opacity="0" /><circle cx="365" cy="35" r="5" fill="#ff66ff" fill-opacity="0.4" /><circle cx="375" cy="35" r="5" fill="#fffdff" fill-opacity="0.4" /><circle cx="385" cy="35" r="5" fill="#ffddff" fill-opacity="0.3" /><circle cx="395" cy="35" r="5" fill="#ff7dff" fill-opacity="0.5" /><circle cx="355" cy="45" r="5" fill="#ffe9ff" fill-opacity="0.1" /><circle cx="405" cy="5" r="5" fill="#ff65ff" fill-opacity="0.5" /><circle cx="415" cy="15" r="5" fill="#ff88ff" fill-opacity="0.4" /><circle cx="425" cy="15" r="5" fill="#ffafff" fill-opacity="0.2" /><circle cx="435" cy="15" r="5" fill="#ff7eff" fill-opacity="0.2" /><circle cx="445" cy="15" r="5" fill="#ff5bff" fill-opacity="0.3" /><circle cx="415" cy="25" r="5" fill="#ff64ff" fill-opacity="0.1" /><circle cx="425" cy="25" r="5" fill="#ffadff" fill-opacity="0.4" /><circle cx="435" cy="25" r="5" fill="#ff4aff" fill-opacity="0.2" /><circle cx="445" cy="25" r="5" fill="#ff1bff" fill-opacity="0.2" /><circle cx="415" cy="35" r="5" fill="#ffa4ff" fill-opacity="0.1" /><circle cx="425" cy="35" r="5" fill="#ffeaff" fill-opacity="0.4" /><circle cx="435" cy="35" r="5" fill="#ff35ff" fill-opacity="0.3" /><circle cx="445" cy="35" r="5" fill="#ff9aff" fill-opacity="0.3" /><circle cx="405" cy="45" r="5" fill="#ff8bff" fill-opacity="0.1" /><circle cx="205" cy="55" r="5" fill="#ffb5ff" fill-opacity="0.1" /><circle cx="215" cy="65" r="5" fill="#ffa8ff" fill-opacity="0" /><circle cx="225" cy="65" r="5" fill="#ffd7ff" fill-opacity="0.1" /><circle cx="235" cy="65" r="5" fill="#ff91ff" fill-opacity="0.2" /><circle cx="245" cy="65" r="5" fill="#ff0bff" fill-opacity="0" /><circle cx="215" cy="75" r="5" fill="#ff67ff" fill-opacity="0.2" /><circle cx="225" cy="75" r="5" fill="#ff19ff" fill-opacity="0.3" /><circle cx="235" cy="75" r="5" fill="#ff6aff" fill-opacity="0.5" /><circle cx="245" cy="75" r="5" fill="#ff16ff" fill-opacity="0.3" /><circle cx="215" cy="85" r="5" fill="#ffdfff" fill-opacity="0.1" /><circle cx="225" cy="85" r="5" fill="#ff05ff" fill-opacity="0.1" /><circle cx="235" cy="85" r="5" fill="#ff69ff" fill-opacity="0.4" /><circle cx="245" cy="85" r="5" fill="#ffe8ff" fill-opacity="0.5" /><circle cx="205" cy="95" r="5" fill="#ff09ff" fill-opacity="0.5" /><circle cx="275" cy="75" r="25" fill="#ff82ff" fill-opacity="0.5" /><circle cx="325" cy="75" r="25" fill="#ffbeff" fill-opacity="0.3" /><circle cx="375" cy="75" r="25" fill="#ff39ff" fill-opacity="0.4" /><circle cx="425" cy="75" r="25" fill="#ff21ff" fill-opacity="0.2" /><circle cx="205" cy="105" r="5" fill="#ff44ff" fill-opacity="0" /><circle cx="215" cy="115" r="5" fill="#ff24ff" fill-opacity="0.2" /><circle cx="225" cy="115" r="5" fill="#ffb7ff" fill-opacity="0.5" /><circle cx="235" cy="115" r="5" fill="#ff4fff" fill-opacity="0.3" /><circle cx="245" cy="115" r="5" fill="#ff56ff" fill-opacity="0" /><circle cx="215" cy="125" r="5" fill="#ff84ff" fill-opacity="0.3" /><circle cx="225" cy="125" r="5" fill="#ffb8ff" fill-opacity="0.1" /><circle cx="235" cy="125" r="5" fill="#ff5aff" fill-opacity="0" /><circle cx="245" cy="125" r="5" fill="#ff6cff" fill-opacity="0" /><circle cx="215" cy="135" r="5" fill="#ff5aff" fill-opacity="0.5" /><circle cx="225" cy="135" r="5" fill="#ff94ff" fill-opacity="0" /><circle cx="235" cy="135" r="5" fill="#ff4cff" fill-opacity="0" /><circle cx="245" cy="135" r="5" fill="#ffeaff" fill-opacity="0.3" /><circle cx="205" cy="145" r="5" fill="#ff43ff" fill-opacity="0.3" /><circle cx="275" cy="125" r="25" fill="#ff32ff" fill-opacity="0" /><circle cx="325" cy="125" r="25" fill="#ffe3ff" fill-opacity="0.2" /><circle cx="375" cy="125" r="25" fill="#ff2fff" fill-opacity="0.2" /><circle cx="425" cy="125" r="25" fill="#ffccff" fill-opacity="0.5" /><circle cx="205" cy="155" r="5" fill="#ff83ff" fill-opacity="0.4" /><circle cx="215" cy="165" r="5" fill="#ff9fff" fill-opacity="0.1" /><circle cx="225" cy="165" r="5" fill="#ff6bff" fill-opacity="0.1" /><circle cx="235" cy="165" r="5" fill="#fff8ff" fill-opacity="0.1" /><circle cx="245" cy="165" r="5" fill="#ffc2ff" fill-opacity="0.5" /><circle cx="215" cy="175" r="5" fill="#ff49ff" fill-opacity="0.2" /><circle cx="225" cy="175" r="5" fill="#ffd4ff" fill-opacity="0.1" /><circle cx="235" cy="175" r="5" fill="#ff7eff" fill-opacity="0.1" /><circle cx="245" cy="175" r="5" fill="#ff9cff" fill-opacity="0.5" /><circle cx="215" cy="185" r="5" fill="#ff88ff" fill-opacity="0.1" /><circle cx="225" cy="185" r="5" fill="#ff74ff" fill-opacity="0.5" /><circle cx="235" cy="185" r="5" fill="#ff24ff" fill-opacity="0.2" /><circle cx="245" cy="185" r="5" fill="#ff4eff" fill-opacity="0.4" /><circle cx="205" cy="195" r="5" fill="#ffefff" fill-opacity="0" /><circle cx="275" cy="175" r="25" fill="#ff9eff" fill-opacity="0.5" /><circle cx="325" cy="175" r="25" fill="#ff0dff" fill-opacity="0.2" /><circle cx="375" cy="175" r="25" fill="#ff34ff" fill-opacity="0" /><circle cx="425" cy="175" r="25" fill="#ffedff" fill-opacity="0.1" /><circle cx="225" cy="225" r="25" fill="#ff06ff" fill-opacity="0.1" /><circle cx="255" cy="205" r="5" fill="#ff69ff" fill-opacity="0.2" /><circle cx="265" cy="215" r="5" fill="#fff7ff" fill-opacity="0" /><circle cx="275" cy="215" r="5" fill="#ff1cff" fill-opacity="0.4" /><circle cx="285" cy="215" r="5" fill="#ffe8ff" fill-opacity="0.5" /><circle cx="295" cy="215" r="5" fill="#ff2aff" fill-opacity="0.3" /><circle cx="265" cy="225" r="5" fill="#ff7cff" fill-opacity="0.4" /><circle cx="275" cy="225" r="5" fill="#ff3eff" fill-opacity="0.1" /><circle cx="285" cy="225" r="5" fill="#ff3dff" fill-opacity="0.2" /><circle cx="295" cy="225" r="5" fill="#ff74ff" fill-opacity="0.3" /><circle cx="265" cy="235" r="5" fill="#ffcdff" fill-opacity="0.4" /><circle cx="275" cy="235" r="5" fill="#ff70ff" fill-opacity="0.3" /><circle cx="285" cy="235" r="5" fill="#fff9ff" fill-opacity="0.4" /><circle cx="295" cy="235" r="5" fill="#ffb5ff" fill-opacity="0.4" /><circle cx="255" cy="245" r="5" fill="#fff1ff" fill-opacity="0.5" /><circle cx="305" cy="205" r="5" fill="#ff6eff" fill-opacity="0.2" /><circle cx="315" cy="215" r="5" fill="#ffc2ff" fill-opacity="0" /><circle cx="325" cy="215" r="5" fill="#ff0eff" fill-opacity="0.5" /><circle cx="335" cy="215" r="5" fill="#ff84ff" fill-opacity="0.3" /><circle cx="345" cy="215" r="5" fill="#ff84ff" fill-opacity="0" /><circle cx="315" cy="225" r="5" fill="#ff6aff" fill-opacity="0.5" /><circle cx="325" cy="225" r="5" fill="#ffb4ff" fill-opacity="0.3" /><circle cx="335" cy="225" r="5" fill="#ff59ff" fill-opacity="0.1" /><circle cx="345" cy="225" r="5" fill="#ff81ff" fill-opacity="0.1" /><circle cx="315" cy="235" r="5" fill="#ff50ff" fill-opacity="0" /><circle cx="325" cy="235" r="5" fill="#ffb7ff" fill-opacity="0.2" /><circle cx="335" cy="235" r="5" fill="#ff27ff" fill-opacity="0.5" /><circle cx="345" cy="235" r="5" fill="#ff24ff" fill-opacity="0.1" /><circle cx="305" cy="245" r="5" fill="#fff1ff" fill-opacity="0.5" /><circle cx="355" cy="205" r="5" fill="#ff58ff" fill-opacity="0.5" /><circle cx="365" cy="215" r="5" fill="#fff0ff" fill-opacity="0.2" /><circle cx="375" cy="215" r="5" fill="#ff76ff" fill-opacity="0.3" /><circle cx="385" cy="215" r="5" fill="#ffc8ff" fill-opacity="0.3" /><circle cx="395" cy="215" r="5" fill="#ff8aff" fill-opacity="0.3" /><circle cx="365" cy="225" r="5" fill="#ff5eff" fill-opacity="0.4" /><circle cx="375" cy="225" r="5" fill="#ffd1ff" fill-opacity="0" /><circle cx="385" cy="225" r="5" fill="#ff84ff" fill-opacity="0.3" /><circle cx="395" cy="225" r="5" fill="#ff81ff" fill-opacity="0.1" /><circle cx="365" cy="235" r="5" fill="#ff16ff" fill-opacity="0.1" /><circle cx="375" cy="235" r="5" fill="#ffbfff" fill-opacity="0.1" /><circle cx="385" cy="235" r="5" fill="#ff98ff" fill-opacity="0.2" /><circle cx="395" cy="235" r="5" fill="#ffc8ff" fill-opacity="0.1" /><circle cx="355" cy="245" r="5" fill="#ff39ff" fill-opacity="0.5" /><circle cx="405" cy="205" r="5" fill="#ff3fff" fill-opacity="0.2" /><circle cx="415" cy="215" r="5" fill="#ff48ff" fill-opacity="0" /><circle cx="425" cy="215" r="5" fill="#ff30ff" fill-opacity="0.2" /><circle cx="435" cy="215" r="5" fill="#ff07ff" fill-opacity="0.2" /><circle cx="445" cy="215" r="5" fill="#ff27ff" fill-opacity="0.1" /><circle cx="415" cy="225" r="5" fill="#ff8aff" fill-opacity="0.3" /><circle cx="425" cy="225" r="5" fill="#ffcbff" fill-opacity="0.4" /><circle cx="435" cy="225" r="5" fill="#ff0aff" fill-opacity="0.1" /><circle cx="445" cy="225" r="5" fill="#ff6aff" fill-opacity="0.5" /><circle cx="415" cy="235" r="5" fill="#ffd9ff" fill-opacity="0.3" /><circle cx="425" cy="235" r="5" fill="#ff0eff" fill-opacity="0.1" /><circle cx="435" cy="235" r="5" fill="#ff25ff" fill-opacity="0" /><circle cx="445" cy="235" r="5" fill="#ffc5ff" fill-opacity="0.4" /><circle cx="405" cy="245" r="5" fill="#ff9aff" fill-opacity="0.2" /><circle cx="225" cy="225" r="25" fill="#ffffac" fill-opacity="0.2" /><circle cx="255" cy="205" r="5" fill="#ffffb3" fill-opacity="0.2" /><circle cx="255" cy="215" r="5" fill="#ffff7b" fill-opacity="0.1" /><circle cx="265" cy="215" r="5" fill="#fffffa" fill-opacity="0.1" /><circle cx="275" cy="215" r="5" fill="#ffffff" fill-opacity="0.5" /><circle cx="285" cy="215" r="5" fill="#ffff97" fill-opacity="0.1" /><circle cx="255" cy="225" r="5" fill="#ffff52" fill-opacity="0.1" /><circle cx="265" cy="225" r="5" fill="#ffff53" fill-opacity="0.3" /><circle cx="275" cy="225" r="5" fill="#ffffa5" fill-opacity="0.2" /><circle cx="285" cy="225" r="5" fill="#ffff04" fill-opacity="0.5" /><circle cx="265" cy="235" r="5" fill="#ffff80" fill-opacity="0.4" /><circle cx="275" cy="235" r="5" fill="#ffff59" fill-opacity="0" /><circle cx="285" cy="235" r="5" fill="#ffff4a" fill-opacity="0.1" /><circle cx="255" cy="245" r="5" fill="#ffffb1" fill-opacity="0.3" /><circle cx="295" cy="245" r="5" fill="#ffffca" fill-opacity="0.4" /><circle cx="305" cy="205" r="5" fill="#ffffd5" fill-opacity="0.1" /><circle cx="305" cy="215" r="5" fill="#ffff1b" fill-opacity="0.5" /><circle cx="315" cy="215" r="5" fill="#ffff81" fill-opacity="0.1" /><circle cx="325" cy="215" r="5" fill="#ffff98" fill-opacity="0.1" /><circle cx="335" cy="215" r="5" fill="#fffffb" fill-opacity="0.4" /><circle cx="305" cy="225" r="5" fill="#ffffb2" fill-opacity="0.4" /><circle cx="315" cy="225" r="5" fill="#ffff71" fill-opacity="0.3" /><circle cx="325" cy="225" r="5" fill="#ffff5e" fill-opacity="0" /><circle cx="335" cy="225" r="5" fill="#ffffc7" fill-opacity="0.1" /><circle cx="315" cy="235" r="5" fill="#ffffe6" fill-opacity="0.4" /><circle cx="325" cy="235" r="5" fill="#ffffea" fill-opacity="0.4" /><circle cx="335" cy="235" r="5" fill="#ffff43" fill-opacity="0.2" /><circle cx="305" cy="245" r="5" fill="#ffffdc" fill-opacity="0.3" /><circle cx="345" cy="245" r="5" fill="#ffff70" fill-opacity="0.1" /><circle cx="355" cy="205" r="5" fill="#ffff55" fill-opacity="0.3" /><circle cx="355" cy="215" r="5" fill="#fffff9" fill-opacity="0" /><circle cx="365" cy="215" r="5" fill="#ffff75" fill-opacity="0.3" /><circle cx="375" cy="215" r="5" fill="#fffff9" fill-opacity="0.4" /><circle cx="385" cy="215" r="5" fill="#ffff89" fill-opacity="0" /><circle cx="355" cy="225" r="5" fill="#ffffb8" fill-opacity="0" /><circle cx="365" cy="225" r="5" fill="#ffff53" fill-opacity="0.4" /><circle cx="375" cy="225" r="5" fill="#ffff1b" fill-opacity="0.5" /><circle cx="385" cy="225" r="5" fill="#ffff1d" fill-opacity="0" /><circle cx="365" cy="235" r="5" fill="#ffffa1" fill-opacity="0" /><circle cx="375" cy="235" r="5" fill="#ffffb3" fill-opacity="0.4" /><circle cx="385" cy="235" r="5" fill="#ffffcd" fill-opacity="0.1" /><circle cx="355" cy="245" r="5" fill="#ffff44" fill-opacity="0.1" /><circle cx="395" cy="245" r="5" fill="#ffff73" fill-opacity="0.2" /><circle cx="405" cy="205" r="5" fill="#ffffd9" fill-opacity="0.1" /><circle cx="405" cy="215" r="5" fill="#ffff13" fill-opacity="0.5" /><circle cx="415" cy="215" r="5" fill="#ffffcd" fill-opacity="0.4" /><circle cx="425" cy="215" r="5" fill="#ffff7a" fill-opacity="0.2" /><circle cx="435" cy="215" r="5" fill="#ffff36" fill-opacity="0" /><circle cx="405" cy="225" r="5" fill="#ffff35" fill-opacity="0.5" /><circle cx="415" cy="225" r="5" fill="#fffff3" fill-opacity="0.5" /><circle cx="425" cy="225" r="5" fill="#ffffd5" fill-opacity="0.4" /><circle cx="435" cy="225" r="5" fill="#ffff1c" fill-opacity="0.2" /><circle cx="415" cy="235" r="5" fill="#ffffa3" fill-opacity="0" /><circle cx="425" cy="235" r="5" fill="#ffffd3" fill-opacity="0" /><circle cx="435" cy="235" r="5" fill="#ffff67" fill-opacity="0.5" /><circle cx="405" cy="245" r="5" fill="#ffff49" fill-opacity="0" /><circle cx="445" cy="245" r="5" fill="#ffffda" fill-opacity="0.5" /><circle cx="225" cy="275" r="25" fill="#ffffce" fill-opacity="0.2" /><circle cx="275" cy="275" r="25" fill="#fffffd" fill-opacity="0.3" /><circle cx="325" cy="275" r="25" fill="#fffff1" fill-opacity="0.2" /><circle cx="375" cy="275" r="25" fill="#ffffc4" fill-opacity="0.5" /><circle cx="405" cy="255" r="5" fill="#ffff9f" fill-opacity="0.4" /><circle cx="405" cy="265" r="5" fill="#ffff3a" fill-opacity="0.3" /><circle cx="415" cy="265" r="5" fill="#ffff59" fill-opacity="0.5" /><circle cx="425" cy="265" r="5" fill="#ffff5d" fill-opacity="0.5" /><circle cx="435" cy="265" r="5" fill="#ffff67" fill-opacity="0.1" /><circle cx="405" cy="275" r="5" fill="#ffff87" fill-opacity="0.2" /><circle cx="415" cy="275" r="5" fill="#ffffd6" fill-opacity="0.1" /><circle cx="425" cy="275" r="5" fill="#ffffbe" fill-opacity="0.2" /><circle cx="435" cy="275" r="5" fill="#ffff61" fill-opacity="0.5" /><circle cx="415" cy="285" r="5" fill="#fffff5" fill-opacity="0.3" /><circle cx="425" cy="285" r="5" fill="#ffff11" fill-opacity="0.2" /><circle cx="435" cy="285" r="5" fill="#ffff3e" fill-opacity="0.3" /><circle cx="405" cy="295" r="5" fill="#ffff4f" fill-opacity="0.4" /><circle cx="445" cy="295" r="5" fill="#ffff07" fill-opacity="0.4" /><circle cx="225" cy="325" r="25" fill="#ffffa1" fill-opacity="0.3" /><circle cx="275" cy="325" r="25" fill="#ffffee" fill-opacity="0.1" /><circle cx="325" cy="325" r="25" fill="#ffff97" fill-opacity="0.2" /><circle cx="375" cy="325" r="25" fill="#ffff08" fill-opacity="0.4" /><circle cx="405" cy="305" r="5" fill="#ffff8f" fill-opacity="0.5" /><circle cx="405" cy="315" r="5" fill="#ffffdf" fill-opacity="0.2" /><circle cx="415" cy="315" r="5" fill="#ffff94" fill-opacity="0.2" /><circle cx="425" cy="315" r="5" fill="#ffff54" fill-opacity="0.3" /><circle cx="435" cy="315" r="5" fill="#ffff99" fill-opacity="0" /><circle cx="405" cy="325" r="5" fill="#ffffac" fill-opacity="0.5" /><circle cx="415" cy="325" r="5" fill="#ffff2a" fill-opacity="0.3" /><circle cx="425" cy="325" r="5" fill="#ffffa5" fill-opacity="0.2" /><circle cx="435" cy="325" r="5" fill="#ffffcd" fill-opacity="0.2" /><circle cx="415" cy="335" r="5" fill="#ffff46" fill-opacity="0" /><circle cx="425" cy="335" r="5" fill="#ffff80" fill-opacity="0.5" /><circle cx="435" cy="335" r="5" fill="#ffffde" fill-opacity="0.3" /><circle cx="405" cy="345" r="5" fill="#ffffe8" fill-opacity="0.5" /><circle cx="445" cy="345" r="5" fill="#ffff7f" fill-opacity="0" /><circle cx="205" cy="355" r="5" fill="#ffffe5" fill-opacity="0.2" /><circle cx="205" cy="365" r="5" fill="#ffffd4" fill-opacity="0.2" /><circle cx="215" cy="365" r="5" fill="#ffff01" fill-opacity="0.2" /><circle cx="225" cy="365" r="5" fill="#ffffe7" fill-opacity="0.1" /><circle cx="235" cy="365" r="5" fill="#ffff8f" fill-opacity="0.4" /><circle cx="205" cy="375" r="5" fill="#ffff58" fill-opacity="0.3" /><circle cx="215" cy="375" r="5" fill="#ffffb9" fill-opacity="0" /><circle cx="225" cy="375" r="5" fill="#ffff46" fill-opacity="0.1" /><circle cx="235" cy="375" r="5" fill="#ffffd3" fill-opacity="0.2" /><circle cx="215" cy="385" r="5" fill="#ffffc9" fill-opacity="0.2" /><circle cx="225" cy="385" r="5" fill="#ffff55" fill-opacity="0.1" /><circle cx="235" cy="385" r="5" fill="#ffff11" fill-opacity="0.5" /><circle cx="205" cy="395" r="5" fill="#ffffa1" fill-opacity="0" /><circle cx="245" cy="395" r="5" fill="#ffffdd" fill-opacity="0" /><circle cx="275" cy="375" r="25" fill="#ffff76" fill-opacity="0.4" /><circle cx="325" cy="375" r="25" fill="#ffff5a" fill-opacity="0" /><circle cx="375" cy="375" r="25" fill="#fffff1" fill-opacity="0" /><circle cx="405" cy="355" r="5" fill="#ffff50" fill-opacity="0.5" /><circle cx="405" cy="365" r="5" fill="#ffff98" fill-opacity="0" /><circle cx="415" cy="365" r="5" fill="#ffffab" fill-opacity="0.3" /><circle cx="425" cy="365" r="5" fill="#ffff4c" fill-opacity="0.5" /><circle cx="435" cy="365" r="5" fill="#ffff27" fill-opacity="0.5" /><circle cx="405" cy="375" r="5" fill="#ffff92" fill-opacity="0.2" /><circle cx="415" cy="375" r="5" fill="#ffff0b" fill-opacity="0.3" /><circle cx="425" cy="375" r="5" fill="#ffff90" fill-opacity="0.3" /><circle cx="435" cy="375" r="5" fill="#ffff6b" fill-opacity="0.1" /><circle cx="415" cy="385" r="5" fill="#ffff03" fill-opacity="0.4" /><circle cx="425" cy="385" r="5" fill="#ffff84" fill-opacity="0.2" /><circle cx="435" cy="385" r="5" fill="#ffff61" fill-opacity="0.3" /><circle cx="405" cy="395" r="5" fill="#ffffb7" fill-opacity="0.3" /><circle cx="445" cy="395" r="5" fill="#ffffe2" fill-opacity="0.5" /><circle cx="225" cy="425" r="25" fill="#ffff7b" fill-opacity="0.3" /><circle cx="255" cy="405" r="5" fill="#ffff68" fill-opacity="0.5" /><circle cx="255" cy="415" r="5" fill="#ffff26" fill-opacity="0.5" /><circle cx="265" cy="415" r="5" fill="#ffff23" fill-opacity="0.2" /><circle cx="275" cy="415" r="5" fill="#ffffc4" fill-opacity="0.1" /><circle cx="285" cy="415" r="5" fill="#ffff99" fill-opacity="0.1" /><circle cx="255" cy="425" r="5" fill="#ffff5a" fill-opacity="0" /><circle cx="265" cy="425" r="5" fill="#ffffe6" fill-opacity="0.2" /><circle cx="275" cy="425" r="5" fill="#ffffa7" fill-opacity="0.2" /><circle cx="285" cy="425" r="5" fill="#ffffdc" fill-opacity="0.2" /><circle cx="265" cy="435" r="5" fill="#ffff56" fill-opacity="0.3" /><circle cx="275" cy="435" r="5" fill="#ffff8e" fill-opacity="0.1" /><circle cx="285" cy="435" r="5" fill="#ffff25" fill-opacity="0.3" /><circle cx="255" cy="445" r="5" fill="#ffffb1" fill-opacity="0.2" /><circle cx="295" cy="445" r="5" fill="#fffff8" fill-opacity="0" /><circle cx="305" cy="405" r="5" fill="#ffff33" fill-opacity="0" /><circle cx="305" cy="415" r="5" fill="#ffff76" fill-opacity="0.1" /><circle cx="315" cy="415" r="5" fill="#ffffdd" fill-opacity="0.2" /><circle cx="325" cy="415" r="5" fill="#ffff22" fill-opacity="0.4" /><circle cx="335" cy="415" r="5" fill="#ffff40" fill-opacity="0.3" /><circle cx="305" cy="425" r="5" fill="#ffff12" fill-opacity="0.5" /><circle cx="315" cy="425" r="5" fill="#ffff67" fill-opacity="0.1" /><circle cx="325" cy="425" r="5" fill="#ffff57" fill-opacity="0.4" /><circle cx="335" cy="425" r="5" fill="#ffff89" fill-opacity="0.4" /><circle cx="315" cy="435" r="5" fill="#ffff0c" fill-opacity="0.5" /><circle cx="325" cy="435" r="5" fill="#ffff8b" fill-opacity="0.5" /><circle cx="335" cy="435" r="5" fill="#ffffb6" fill-opacity="0.3" /><circle cx="305" cy="445" r="5" fill="#ffffbe" fill-opacity="0.5" /><circle cx="345" cy="445" r="5" fill="#ffff8c" fill-opacity="0.5" /><circle cx="355" cy="405" r="5" fill="#fffff3" fill-opacity="0.4" /><circle cx="355" cy="415" r="5" fill="#ffff6d" fill-opacity="0" /><circle cx="365" cy="415" r="5" fill="#ffffd4" fill-opacity="0.4" /><circle cx="375" cy="415" r="5" fill="#fffff0" fill-opacity="0.1" /><circle cx="385" cy="415" r="5" fill="#ffff5b" fill-opacity="0.2" /><circle cx="355" cy="425" r="5" fill="#ffff67" fill-opacity="0.3" /><circle cx="365" cy="425" r="5" fill="#ffff97" fill-opacity="0.5" /><circle cx="375" cy="425" r="5" fill="#ffffbe" fill-opacity="0.1" /><circle cx="385" cy="425" r="5" fill="#ffffc7" fill-opacity="0.2" /><circle cx="365" cy="435" r="5" fill="#ffff30" fill-opacity="0.4" /><circle cx="375" cy="435" r="5" fill="#ffffbf" fill-opacity="0.2" /><circle cx="385" cy="435" r="5" fill="#ffff42" fill-opacity="0.5" /><circle cx="355" cy="445" r="5" fill="#ffff9f" fill-opacity="0" /><circle cx="395" cy="445" r="5" fill="#ffff44" fill-opacity="0.2" /><circle cx="425" cy="425" r="25" fill="#fffffc" fill-opacity="0.1" /><image xlink:href="logo-dots.png" x="0" y="0" width="449" height="449" /></svg>